<svg width="69" height="97" viewBox="0 0 69 97" fill="none" xmlns="http://www.w3.org/2000/svg">
<g filter="url(#filter0_d)">
<path d="M54 33.4444C54 48.0493 27.5 75 27.5 75C27.5 75 1 48.0493 1 33.4444C1 18.8396 12.8645 7 27.5 7C42.1355 7 54 18.8396 54 33.4444Z" fill="#FCFCFC"/>
<g clip-path="url(#clip0)">
<path d="M42.2491 47.1617L40.1201 27.7845C40.0867 20.8703 34.617 15.2563 27.8987 15.2563C21.1804 15.2563 15.7108 20.8707 15.6777 27.7845L13.5483 47.1617C13.5128 47.4859 13.6185 47.8097 13.8374 48.0455C14.0563 48.2817 14.3663 48.4075 14.681 48.3833C14.7031 48.3818 16.8805 48.2329 18.8414 48.2329C20.2236 48.2329 20.9106 48.3063 21.2438 48.3683C22.9118 48.677 26.1677 50.854 27.2815 51.6671C27.4666 51.8017 27.6827 51.8695 27.8987 51.8695C28.1151 51.8695 28.3323 51.8013 28.5174 51.6656C29.5963 50.8753 32.7547 48.7522 34.3896 48.4266C34.7658 48.3517 35.5617 48.2626 37.2187 48.2626C39.1249 48.2626 41.1047 48.3826 41.1243 48.384C41.4372 48.3991 41.7454 48.278 41.9625 48.0426C42.1797 47.8071 42.2847 47.4844 42.2491 47.1617ZM37.2187 46.0622C35.7319 46.0622 34.6743 46.1289 33.9841 46.2665C32.0691 46.6479 29.183 48.5395 27.8973 49.4333C26.581 48.5215 23.5874 46.5668 21.6211 46.2023C21.0035 46.0878 20.094 46.0325 18.8407 46.0325C17.76 46.0325 16.6391 46.0743 15.8119 46.115L17.8059 27.9719C17.8106 27.9308 17.8127 27.8894 17.8127 27.8483C17.8127 22.1184 22.3369 17.4571 27.8984 17.4571C33.4595 17.4571 37.984 22.1184 37.984 27.8483C37.984 27.8898 37.9865 27.9312 37.9908 27.9719L39.9856 46.1249C39.2295 46.0934 38.2232 46.0622 37.2187 46.0622Z" fill="#080029"/>
<path d="M21.4916 29.2067C22.5483 29.2067 23.4049 28.3241 23.4049 27.2355C23.4049 26.1468 22.5483 25.2642 21.4916 25.2642C20.435 25.2642 19.5784 26.1468 19.5784 27.2355C19.5784 28.3241 20.435 29.2067 21.4916 29.2067Z" fill="#080029"/>
<path d="M34.3061 29.2067C35.3628 29.2067 36.2194 28.3241 36.2194 27.2355C36.2194 26.1468 35.3628 25.2642 34.3061 25.2642C33.2495 25.2642 32.3929 26.1468 32.3929 27.2355C32.3929 28.3241 33.2495 29.2067 34.3061 29.2067Z" fill="#080029"/>
<path d="M27.8987 42.7912L32.6643 30.0767H23.1325L27.8987 42.7912ZM27.8987 36.6835L26.2471 32.2771H29.5504L27.8987 36.6835Z" fill="#080029"/>
</g>
</g>
<defs>
<filter id="filter0_d" x="-12.5048" y="0.569131" width="81.2958" height="96.2958" filterUnits="userSpaceOnUse" color-interpolation-filters="sRGB">
<feFlood flood-opacity="0" result="BackgroundImageFix"/>
<feColorMatrix in="SourceAlpha" type="matrix" values="0 0 0 0 0 0 0 0 0 0 0 0 0 0 0 0 0 0 127 0"/>
<feOffset dx="0.643087" dy="7.71704"/>
<feGaussianBlur stdDeviation="7.07396"/>
<feColorMatrix type="matrix" values="0 0 0 0 0 0 0 0 0 0 0 0 0 0 0 0 0 0 0.09 0"/>
<feBlend mode="normal" in2="BackgroundImageFix" result="effect1_dropShadow"/>
<feBlend mode="normal" in="SourceGraphic" in2="effect1_dropShadow" result="shape"/>
</filter>
<clipPath id="clip0">
<rect width="29.1884" height="36.6742" fill="white" transform="translate(13.2899 15.2258)"/>
</clipPath>
</defs>
</svg>
