<svg width="126" height="150" viewBox="0 0 126 150" fill="none" xmlns="http://www.w3.org/2000/svg">
<g filter="url(#filter0_d)">
<path d="M103 51.2222C103 73.9886 62 116 62 116C62 116 21 73.9886 21 51.2222C21 28.4558 39.3563 10 62 10C84.6437 10 103 28.4558 103 51.2222Z" fill="#FCFCFC"/>
<g clip-path="url(#clip0)">
<path d="M84.8197 72.6049L81.5258 42.3994C81.4741 31.6214 73.0116 22.87 62.6173 22.87C52.2229 22.87 43.7604 31.6219 43.7092 42.3994L40.4148 72.6049C40.3597 73.1103 40.5233 73.6151 40.862 73.9827C41.2007 74.3508 41.6804 74.5469 42.1672 74.5092C42.2013 74.5069 45.5701 74.2748 48.6041 74.2748C50.7425 74.2748 51.8054 74.3892 52.3209 74.4858C54.9016 74.9671 59.9391 78.3606 61.6623 79.6281C61.9487 79.8379 62.283 79.9436 62.6173 79.9436C62.9521 79.9436 63.288 79.8373 63.5744 79.6258C65.2437 78.3938 70.1302 75.0843 72.6597 74.5767C73.2418 74.46 74.4733 74.3211 77.0369 74.3211C79.986 74.3211 83.0491 74.5081 83.0794 74.5103C83.5635 74.5338 84.0405 74.3451 84.3764 73.9781C84.7123 73.6111 84.8748 73.108 84.8197 72.6049ZM77.0369 70.891C74.7365 70.891 73.1003 70.9951 72.0324 71.2094C69.0695 71.804 64.6043 74.7527 62.6151 76.1459C60.5785 74.7247 55.9469 71.6776 52.9047 71.1094C51.9492 70.931 50.5421 70.8447 48.603 70.8447C46.931 70.8447 45.1967 70.9099 43.9168 70.9733L47.002 42.6915C47.0092 42.6275 47.0125 42.5629 47.0125 42.4988C47.0125 33.5668 54.0122 26.3007 62.6167 26.3007C71.2207 26.3007 78.2209 33.5668 78.2209 42.4988C78.2209 42.5634 78.2248 42.628 78.2314 42.6915L81.3177 70.9888C80.1479 70.9396 78.591 70.891 77.0369 70.891Z" fill="#080029"/>
<path d="M52.7043 44.6163C54.3391 44.6163 55.6644 43.2406 55.6644 41.5435C55.6644 39.8464 54.3391 38.4707 52.7043 38.4707C51.0694 38.4707 49.7441 39.8464 49.7441 41.5435C49.7441 43.2406 51.0694 44.6163 52.7043 44.6163Z" fill="#080029"/>
<path d="M72.5302 44.6163C74.1651 44.6163 75.4904 43.2406 75.4904 41.5435C75.4904 39.8464 74.1651 38.4707 72.5302 38.4707C70.8954 38.4707 69.5701 39.8464 69.5701 41.5435C69.5701 43.2406 70.8954 44.6163 72.5302 44.6163Z" fill="#080029"/>
<path d="M62.6174 65.7923L69.9905 45.9725H55.2432L62.6174 65.7923ZM62.6174 56.2714L60.062 49.4026H65.1727L62.6174 56.2714Z" fill="#080029"/>
</g>
</g>
<defs>
<filter id="filter0_d" x="0" y="0" width="126" height="150" filterUnits="userSpaceOnUse" color-interpolation-filters="sRGB">
<feFlood flood-opacity="0" result="BackgroundImageFix"/>
<feColorMatrix in="SourceAlpha" type="matrix" values="0 0 0 0 0 0 0 0 0 0 0 0 0 0 0 0 0 0 127 0"/>
<feOffset dx="1" dy="12"/>
<feGaussianBlur stdDeviation="11"/>
<feColorMatrix type="matrix" values="0 0 0 0 0 0 0 0 0 0 0 0 0 0 0 0 0 0 0.09 0"/>
<feBlend mode="normal" in2="BackgroundImageFix" result="effect1_dropShadow"/>
<feBlend mode="normal" in="SourceGraphic" in2="effect1_dropShadow" result="shape"/>
</filter>
<clipPath id="clip0">
<rect width="45.1594" height="57.1685" fill="white" transform="translate(40.0144 22.8226)"/>
</clipPath>
</defs>
</svg>
