<svg width="55" height="55" viewBox="0 0 55 55" fill="none" xmlns="http://www.w3.org/2000/svg">
<circle cx="27.5" cy="27.5" r="26.5" stroke="#D9E8FF" stroke-width="2"/>
<path d="M40.796 39.7364L38.8996 22.3005C38.8698 16.079 33.9977 11.0274 28.0132 11.0274C22.0288 11.0274 17.1566 16.0793 17.1271 22.3005L15.2304 39.7364C15.1987 40.0281 15.2929 40.3195 15.4879 40.5317C15.6829 40.7442 15.959 40.8574 16.2393 40.8356C16.259 40.8343 18.1985 40.7003 19.9453 40.7003C21.1765 40.7003 21.7884 40.7663 22.0852 40.8221C23.571 41.0999 26.4713 43.0588 27.4634 43.7904C27.6283 43.9115 27.8208 43.9726 28.0132 43.9726C28.206 43.9726 28.3994 43.9112 28.5643 43.7891C29.5253 43.078 32.3387 41.1676 33.795 40.8746C34.1302 40.8072 34.8392 40.727 36.3151 40.727C38.0131 40.727 39.7766 40.835 39.7941 40.8363C40.0728 40.8498 40.3474 40.7409 40.5408 40.529C40.7342 40.3172 40.8277 40.0268 40.796 39.7364ZM36.3151 38.747C34.9907 38.747 34.0487 38.8071 33.4339 38.9309C31.728 39.2741 29.1572 40.9762 28.0119 41.7804C26.8394 40.96 24.1728 39.2011 22.4213 38.8731C21.8712 38.7701 21.0611 38.7203 19.9447 38.7203C18.982 38.7203 17.9836 38.7579 17.2467 38.7946L19.0229 22.4691C19.027 22.4322 19.0289 22.3949 19.0289 22.3579C19.0289 17.202 23.0589 13.0077 28.0129 13.0077C32.9665 13.0077 36.9968 17.202 36.9968 22.3579C36.9968 22.3952 36.9991 22.4325 37.0029 22.4691L38.7798 38.8035C38.1063 38.7751 37.2099 38.747 36.3151 38.747Z" fill="#0F0049"/>
<path d="M22.3061 23.5802C23.2473 23.5802 24.0103 22.7861 24.0103 21.8065C24.0103 20.8268 23.2473 20.0327 22.3061 20.0327C21.3648 20.0327 20.6018 20.8268 20.6018 21.8065C20.6018 22.7861 21.3648 23.5802 22.3061 23.5802Z" fill="#0F0049"/>
<path d="M33.7206 23.5802C34.6619 23.5802 35.4249 22.7861 35.4249 21.8065C35.4249 20.8268 34.6619 20.0327 33.7206 20.0327C32.7794 20.0327 32.0164 20.8268 32.0164 21.8065C32.0164 22.7861 32.7794 23.5802 33.7206 23.5802Z" fill="#0F0049"/>
<path d="M28.0134 35.8038L32.2584 24.3631H23.7678L28.0134 35.8038ZM28.0134 30.308L26.5422 26.3431H29.4846L28.0134 30.308Z" fill="#0F0049"/>
</svg>
