<svg width="24" height="24" viewBox="0 0 24 24" fill="none" xmlns="http://www.w3.org/2000/svg">
<path d="M14.25 17.9531C14.25 19.8375 14.2453 21.7172 14.2547 23.6016C14.2547 23.8078 14.1985 23.8641 13.9922 23.8594C12.3891 23.85 10.7906 23.85 9.18751 23.8594C8.9672 23.8594 8.89689 23.8078 8.89689 23.5781C8.90626 19.8422 8.90157 16.1109 8.90157 12.375C8.90157 12 8.94376 12.0469 8.55939 12.0422C7.8797 12.0422 7.20001 12.0375 6.52032 12.0469C6.35626 12.0469 6.30939 11.9953 6.30939 11.8313C6.31407 10.6453 6.31407 9.4547 6.30939 8.26876C6.30939 8.1047 6.35626 8.05313 6.52032 8.05782C7.23282 8.0672 7.94064 8.05313 8.65314 8.0672C8.84533 8.07189 8.90626 8.02032 8.90626 7.81876C8.89689 6.82032 8.90626 5.8172 8.90157 4.81876C8.89689 3.98907 9.02345 3.18751 9.44064 2.45626C9.89064 1.65939 10.5656 1.11095 11.4 0.754699C12.1031 0.454699 12.8438 0.314074 13.6031 0.271886C15.1078 0.187511 16.6172 0.257824 18.1219 0.229699C18.2906 0.225011 18.3328 0.285949 18.3328 0.445324C18.3281 1.67814 18.3281 2.91564 18.3328 4.14845C18.3328 4.33595 18.2625 4.36407 18.0985 4.36407C17.2313 4.35939 16.3641 4.35939 15.4969 4.35939C14.775 4.35939 14.2547 4.8797 14.2547 5.5922C14.2547 6.32814 14.2641 7.05938 14.25 7.79532C14.2453 8.00626 14.3156 8.05782 14.5172 8.05782C15.7031 8.04845 16.8938 8.05782 18.0797 8.04845C18.2766 8.04845 18.3422 8.1047 18.3188 8.30157C18.2485 8.90626 18.1875 9.51095 18.1219 10.1156C18.061 10.6969 17.9578 11.2734 17.8641 11.85C17.836 12.0141 17.7844 12.0516 17.6344 12.0516C16.6172 12.0469 15.6047 12.0469 14.5875 12.0516C14.1891 12.0516 14.2453 12 14.2453 12.4031C14.25 14.25 14.25 16.1016 14.25 17.9531Z" fill="#080029"/>
</svg>
