<svg width="55" height="55" viewBox="0 0 55 55" fill="none" xmlns="http://www.w3.org/2000/svg">
<g clip-path="url(#clip0)">
<path d="M43.0881 17.2037C42.2325 16.3589 41.0995 15.8938 39.8975 15.8938C38.6725 15.8938 37.5243 16.3744 36.6639 17.247L35.6916 18.2334C33.1988 16.5932 30.4209 15.7302 27.6141 15.7302C24.8071 15.7302 22.0292 16.5932 19.5367 18.2334L18.5641 17.247C17.7037 16.3744 16.5552 15.894 15.3305 15.894C14.1288 15.894 12.9958 16.3592 12.1402 17.2042C10.3578 18.9646 10.3387 21.8485 12.0974 23.6329L13.5323 25.0883C12.6354 26.9619 12.1638 28.8989 12.1638 30.7246C12.1638 37.1941 18.0841 41.213 27.6144 41.213C37.1445 41.213 43.0648 37.1941 43.0648 30.7246C43.0648 28.8992 42.5929 26.9625 41.6957 25.0883L43.1311 23.6329C44.8896 21.8485 44.8705 18.9646 43.0881 17.2037ZM41.9286 22.446L40.068 24.3331C39.8095 24.5956 39.7507 24.9951 39.9226 25.3209C40.8736 27.123 41.3761 28.9915 41.3761 30.7243C41.3761 37.2118 34.2668 39.5233 27.6139 39.5233C20.9607 39.5233 13.8514 37.2118 13.8514 30.7243C13.8514 28.9912 14.3539 27.1224 15.3046 25.3209C15.4765 24.9951 15.4174 24.5953 15.1591 24.3331L13.2988 22.446C12.1936 21.3248 12.2057 19.5126 13.3255 18.4065C13.8632 17.8758 14.575 17.5832 15.3302 17.5832C16.1 17.5832 16.8216 17.8853 17.3624 18.4336L18.8319 19.924C19.1243 20.2205 19.5888 20.259 19.9264 20.0157C22.2791 18.3173 24.9373 17.4196 27.6141 17.4196C30.2904 17.4196 32.9486 18.3173 35.3016 20.0157C35.6389 20.2593 36.104 20.2205 36.3964 19.924L37.8659 18.4336C38.4064 17.8853 39.128 17.5832 39.8978 17.5832C40.6533 17.5832 41.3651 17.8758 41.9025 18.4063C43.0223 19.5129 43.0341 21.3248 41.9286 22.446Z" fill="#0F0049"/>
<path d="M16.8998 26.7947C15.2789 28.4169 14.9672 30.7345 16.2035 31.9715C17.4395 33.209 19.7553 32.8967 21.3762 31.2746C22.9968 29.6527 23.3085 27.335 22.0725 26.0978C20.8363 24.8608 18.5204 25.1728 16.8998 26.7947ZM18.8918 30.6185C18.0565 30.6185 17.3795 29.941 17.3795 29.105C17.3795 28.269 18.0565 27.5916 18.8918 27.5916C19.7272 27.5916 20.4041 28.269 20.4041 29.105C20.4041 29.941 19.7272 30.6185 18.8918 30.6185Z" fill="#0F0049"/>
<path d="M33.1554 26.0978C31.9188 27.335 32.2312 29.6527 33.8518 31.2746C35.4724 32.8967 37.7885 33.2087 39.0245 31.9715C40.261 30.7345 39.9487 28.4169 38.3281 26.7947C36.7075 25.1728 34.3911 24.8608 33.1554 26.0978ZM36.3361 30.6185C35.5008 30.6185 34.8238 29.941 34.8238 29.105C34.8238 28.269 35.5008 27.5916 36.3361 27.5916C37.1715 27.5916 37.8484 28.269 37.8484 29.105C37.8484 29.941 37.1712 30.6185 36.3361 30.6185Z" fill="#0F0049"/>
<path d="M29.1957 32.4922C29.5781 32.4116 29.8651 32.0729 29.8651 31.666C29.8651 31.1995 29.4872 30.8213 29.021 30.8213H26.2074C25.7412 30.8213 25.3634 31.1995 25.3634 31.666C25.3634 32.0726 25.6504 32.4114 26.0324 32.4922L24.6631 33.8626C24.3333 34.1923 24.3333 34.7273 24.6631 35.057C24.828 35.222 25.044 35.3045 25.2598 35.3045C25.4756 35.3045 25.6917 35.222 25.8566 35.057L27.6139 33.2983L29.3713 35.057C29.5362 35.222 29.7522 35.3045 29.968 35.3045C30.1838 35.3045 30.3999 35.222 30.5648 35.057C30.8945 34.7273 30.8945 34.1923 30.5648 33.8626L29.1957 32.4922Z" fill="#0F0049"/>
</g>
<rect x="1" y="1" width="53" height="53" rx="26.5" stroke="#D9E8FF" stroke-width="2"/>
<defs>
<clipPath id="clip0">
<rect width="33.7719" height="26.0526" fill="white" transform="translate(10.614 15.4386)"/>
</clipPath>
</defs>
</svg>
