<svg width="84" height="132" viewBox="0 0 84 132" fill="none" xmlns="http://www.w3.org/2000/svg">
<path d="M57.7898 102.46V107.847C57.7898 109.027 57.4604 109.931 56.8018 110.558C56.143 111.192 55.2336 111.51 54.0733 111.51C53.4071 111.51 52.7971 111.416 52.2432 111.23C51.6892 111.051 51.2176 110.793 50.8284 110.457L51.5358 109.113C52.2469 109.688 53.0778 109.975 54.0284 109.975C54.6871 109.975 55.1737 109.811 55.4881 109.483C55.8099 109.147 55.9709 108.631 55.9709 107.937V107.455C55.4469 108.097 54.7058 108.419 53.7477 108.419C52.7521 108.419 51.9849 108.139 51.446 107.579C50.9145 107.011 50.6488 106.197 50.6488 105.137V102.46H52.4677V105.025C52.4677 105.637 52.6137 106.1 52.9056 106.414C53.1976 106.727 53.6092 106.884 54.1407 106.884C54.7021 106.884 55.1474 106.72 55.4768 106.391C55.8062 106.063 55.9709 105.566 55.9709 104.902V102.46H57.7898ZM66.0105 109.628C65.6362 109.882 65.1646 110.08 64.5958 110.222C64.0344 110.364 63.4355 110.435 62.7993 110.435C62.0058 110.435 61.3322 110.337 60.7783 110.143C60.2243 109.942 59.8051 109.665 59.5207 109.315C59.2362 108.956 59.094 108.549 59.094 108.094C59.094 107.676 59.21 107.306 59.4421 106.985C59.6741 106.664 59.9923 106.425 60.3965 106.268C60.0896 106.104 59.85 105.88 59.6779 105.596C59.5132 105.312 59.4309 104.995 59.4309 104.644C59.4309 104.219 59.5618 103.83 59.8239 103.479C60.0858 103.128 60.4825 102.848 61.014 102.639C61.5455 102.43 62.1967 102.326 62.9677 102.326C63.4767 102.326 63.9745 102.378 64.4611 102.483C64.9476 102.58 65.3705 102.714 65.7298 102.886L65.2246 104.275C64.5359 103.953 63.806 103.793 63.0351 103.793C62.4512 103.793 62.0096 103.883 61.7102 104.062C61.4183 104.233 61.2723 104.469 61.2723 104.767C61.2723 105.044 61.3696 105.256 61.5642 105.406C61.7663 105.548 62.0695 105.619 62.4737 105.619H64.6183V107.052H62.3614C61.9048 107.052 61.553 107.131 61.306 107.287C61.059 107.444 60.9354 107.672 60.9354 107.971C60.9354 108.284 61.0926 108.531 61.407 108.71C61.7289 108.881 62.2192 108.967 62.8779 108.967C63.342 108.967 63.806 108.908 64.2702 108.788C64.7343 108.661 65.1272 108.486 65.4491 108.262L66.0105 109.628ZM76.0484 102.326C76.9769 102.326 77.699 102.598 78.2155 103.143C78.7319 103.681 78.9902 104.461 78.9902 105.484V110.3H77.1712V105.54C77.1712 104.988 77.0253 104.573 76.7334 104.297C76.4491 104.013 76.0709 103.871 75.5993 103.871C75.0828 103.871 74.6709 104.021 74.3642 104.319C74.0576 104.611 73.9039 105.055 73.9039 105.652V110.3H72.0849V105.54C72.0849 104.988 71.9502 104.573 71.6807 104.297C71.4112 104.013 71.0442 103.871 70.5804 103.871C70.0712 103.871 69.6633 104.021 69.3564 104.319C69.0495 104.611 68.896 105.055 68.896 105.652V110.3H67.0771V102.46H68.8399V103.423C69.0795 103.072 69.3976 102.804 69.7943 102.617C70.1909 102.423 70.6477 102.326 71.1642 102.326C71.7032 102.326 72.1748 102.427 72.579 102.628C72.9832 102.822 73.2941 103.106 73.5109 103.479C73.7804 103.106 74.1319 102.822 74.5663 102.628C75.0077 102.427 75.5018 102.326 76.0484 102.326ZM50.5393 113.52H53.2172C53.8572 113.52 54.4214 113.643 54.9098 113.89C55.4039 114.131 55.7856 114.472 56.0551 114.915C56.3302 115.357 56.4677 115.872 56.4677 116.46C56.4677 117.048 56.3302 117.563 56.0551 118.006C55.7856 118.448 55.4039 118.793 54.9098 119.039C54.4214 119.28 53.8572 119.4 53.2172 119.4H50.5393V113.52ZM53.1498 118.283C53.7393 118.283 54.2081 118.121 54.5561 117.796C54.9098 117.465 55.0867 117.02 55.0867 116.46C55.0867 115.9 54.9098 115.458 54.5561 115.133C54.2081 114.803 53.7393 114.637 53.1498 114.637H51.9035V118.283H53.1498ZM57.4039 114.881H58.7176V119.4H57.4039V114.881ZM58.0607 114.251C57.8193 114.251 57.6228 114.181 57.4712 114.041C57.3197 113.901 57.2439 113.727 57.2439 113.52C57.2439 113.313 57.3197 113.139 57.4712 112.999C57.6228 112.859 57.8193 112.789 58.0607 112.789C58.3021 112.789 58.4986 112.857 58.6502 112.991C58.8018 113.125 58.8776 113.293 58.8776 113.495C58.8776 113.713 58.8018 113.895 58.6502 114.041C58.4986 114.181 58.3021 114.251 58.0607 114.251ZM64.6105 114.881V118.644C64.6105 119.473 64.3943 120.089 63.962 120.492C63.5298 120.895 62.8982 121.097 62.0673 121.097C61.6294 121.097 61.214 121.044 60.821 120.937C60.428 120.831 60.1024 120.677 59.8442 120.475L60.3663 119.535C60.5571 119.691 60.7985 119.815 61.0905 119.904C61.3824 119.999 61.6743 120.047 61.9663 120.047C62.421 120.047 62.755 119.943 62.9684 119.736C63.1873 119.535 63.2968 119.227 63.2968 118.812V118.619C62.9543 118.994 62.4771 119.182 61.8652 119.182C61.4498 119.182 61.068 119.092 60.7199 118.913C60.3775 118.728 60.1052 118.471 59.9031 118.14C59.701 117.81 59.5999 117.429 59.5999 116.998C59.5999 116.567 59.701 116.186 59.9031 115.855C60.1052 115.525 60.3775 115.27 60.7199 115.091C61.068 114.906 61.4498 114.814 61.8652 114.814C62.522 114.814 63.0217 115.029 63.3642 115.461V114.881H64.6105ZM62.1263 118.107C62.4743 118.107 62.7578 118.006 62.9768 117.804C63.2013 117.597 63.3136 117.328 63.3136 116.998C63.3136 116.667 63.2013 116.401 62.9768 116.2C62.7578 115.993 62.4743 115.889 62.1263 115.889C61.7782 115.889 61.4919 115.993 61.2673 116.2C61.0427 116.401 60.9305 116.667 60.9305 116.998C60.9305 117.328 61.0427 117.597 61.2673 117.804C61.4919 118.006 61.7782 118.107 62.1263 118.107ZM65.8331 114.881H67.1468V119.4H65.8331V114.881ZM66.49 114.251C66.2486 114.251 66.0521 114.181 65.9005 114.041C65.7489 113.901 65.6731 113.727 65.6731 113.52C65.6731 113.313 65.7489 113.139 65.9005 112.999C66.0521 112.859 66.2486 112.789 66.49 112.789C66.7314 112.789 66.9279 112.857 67.0795 112.991C67.231 113.125 67.3068 113.293 67.3068 113.495C67.3068 113.713 67.231 113.895 67.0795 114.041C66.9279 114.181 66.7314 114.251 66.49 114.251ZM71.0947 119.182C70.9656 119.277 70.8056 119.35 70.6148 119.4C70.4295 119.445 70.2358 119.467 70.0334 119.467C69.4889 119.467 69.0706 119.33 68.7787 119.056C68.4867 118.781 68.3408 118.378 68.3408 117.846V113.881H69.6545V114.982H70.7747V115.99H69.6545V117.829C69.6545 118.02 69.7022 118.168 69.7976 118.275C69.8931 118.375 70.0306 118.426 70.2105 118.426C70.4126 118.426 70.5923 118.37 70.7495 118.258L71.0947 119.182ZM76.2948 114.881V119.4H75.04V118.879C74.7144 119.271 74.2428 119.467 73.6253 119.467C73.1986 119.467 72.8112 119.372 72.4632 119.182C72.1207 118.991 71.8512 118.72 71.6548 118.367C71.4583 118.014 71.36 117.605 71.36 117.141C71.36 116.676 71.4583 116.267 71.6548 115.914C71.8512 115.561 72.1207 115.29 72.4632 115.099C72.8112 114.909 73.1986 114.814 73.6253 114.814C74.2035 114.814 74.6555 114.996 74.9811 115.36V114.881H76.2948ZM73.8526 118.392C74.1839 118.392 74.459 118.28 74.6779 118.056C74.8969 117.827 75.0063 117.521 75.0063 117.141C75.0063 116.76 74.8969 116.457 74.6779 116.233C74.459 116.004 74.1839 115.889 73.8526 115.889C73.5158 115.889 73.2379 116.004 73.019 116.233C72.8 116.457 72.6905 116.76 72.6905 117.141C72.6905 117.521 72.8 117.827 73.019 118.056C73.2379 118.28 73.5158 118.392 73.8526 118.392ZM79.1362 119.467C78.6253 119.467 78.2267 119.333 77.9404 119.064C77.6541 118.79 77.5109 118.403 77.5109 117.905V113.167H78.8246V117.829C78.8246 118.02 78.8723 118.168 78.9677 118.275C79.0688 118.375 79.2091 118.426 79.3888 118.426C79.4562 118.426 79.5235 118.417 79.5909 118.401C79.6639 118.384 79.72 118.364 79.7593 118.342L79.8183 119.358C79.5993 119.431 79.3719 119.467 79.1362 119.467Z" fill="#F2F2F2"/>
<path d="M12.4021 101.607C12.4308 101.642 12.4563 101.671 12.485 101.706C12.6573 101.913 12.8422 102.139 13.0432 102.381C13.1421 102.502 13.2474 102.626 13.3526 102.753C13.8853 103.392 14.4882 104.118 15.1229 104.875C15.3749 105.177 15.6333 105.486 15.8917 105.795C16.1501 106.103 16.4116 106.415 16.67 106.724C16.686 106.743 16.7019 106.762 16.7179 106.781C16.8359 106.921 16.9507 107.061 17.0687 107.198C17.0879 107.22 17.107 107.246 17.1293 107.268C17.2218 107.376 17.3112 107.484 17.4005 107.592C17.4579 107.662 17.5153 107.729 17.5727 107.799C17.5887 107.818 17.6046 107.837 17.6206 107.857C17.6556 107.901 17.694 107.942 17.729 107.987C17.7737 108.041 17.8183 108.095 17.863 108.149C17.8821 108.175 17.9045 108.197 17.9236 108.222C17.9778 108.286 18.0321 108.353 18.0863 108.417C18.1246 108.461 18.1596 108.506 18.1979 108.55C18.2426 108.604 18.2872 108.658 18.3319 108.712C18.3702 108.76 18.4116 108.805 18.4499 108.852C18.469 108.875 18.4882 108.9 18.5105 108.922C18.5712 108.996 18.6317 109.069 18.6923 109.139C18.7115 109.161 18.7306 109.183 18.7497 109.206C18.7848 109.25 18.8231 109.292 18.8582 109.333C18.8965 109.377 18.9316 109.422 18.9698 109.467C18.989 109.489 19.0049 109.508 19.0241 109.53C19.2474 109.794 19.4547 110.046 19.6525 110.278C19.662 110.287 19.6716 110.3 19.6812 110.31C19.7417 110.38 19.796 110.447 19.8534 110.513C19.8853 110.552 19.9172 110.59 19.9459 110.625C19.9587 110.641 19.9747 110.66 19.9874 110.676C20.0831 110.787 20.1692 110.892 20.2554 110.994C20.3606 111.118 20.4595 111.236 20.5456 111.337C20.5712 111.369 20.5935 111.395 20.6158 111.423L20.6189 111.427C20.7115 111.538 20.7944 111.637 20.8614 111.716C20.8614 111.716 20.8614 111.716 20.8646 111.719C20.8965 111.757 20.9284 111.792 20.9539 111.824C20.9603 111.831 20.9667 111.834 20.973 111.84C21.0081 111.866 21.0655 111.869 21.1006 111.84C21.107 111.834 21.1134 111.831 21.1198 111.824C21.1421 111.799 21.1676 111.767 21.1963 111.735C21.2154 111.71 21.2378 111.684 21.2601 111.659C21.3112 111.598 21.3686 111.532 21.4292 111.458C21.4515 111.433 21.4707 111.411 21.4898 111.385C21.4961 111.379 21.4994 111.372 21.5057 111.366C21.5376 111.328 21.5727 111.287 21.6078 111.245C21.6078 111.242 21.611 111.242 21.611 111.242C21.6397 111.207 21.6716 111.169 21.7035 111.131C21.7258 111.102 21.7514 111.073 21.7768 111.042C21.8662 110.933 21.9619 110.822 22.0639 110.698C22.0767 110.682 22.0895 110.666 22.1054 110.65C22.1469 110.599 22.1947 110.545 22.2394 110.491C22.2808 110.443 22.3223 110.392 22.3638 110.342C22.5074 110.17 22.6604 109.988 22.8199 109.797C22.8519 109.762 22.8806 109.724 22.9124 109.689C22.922 109.677 22.9347 109.664 22.9443 109.651C22.989 109.597 23.0368 109.543 23.0815 109.486C23.1293 109.428 23.1772 109.371 23.2282 109.311C23.2569 109.276 23.2856 109.244 23.3143 109.209C23.3271 109.193 23.3399 109.18 23.3526 109.164C23.4196 109.082 23.4897 108.999 23.5599 108.916C23.5791 108.894 23.595 108.875 23.6142 108.852C23.6365 108.827 23.6589 108.802 23.678 108.776C23.8502 108.572 24.0257 108.362 24.2043 108.146C24.2458 108.095 24.2905 108.044 24.3319 107.993C24.3382 107.987 24.3446 107.977 24.351 107.971C24.4053 107.904 24.4627 107.837 24.5201 107.771C24.5679 107.717 24.6126 107.659 24.6604 107.605C24.7497 107.5 24.8391 107.392 24.9284 107.284C24.9539 107.252 24.9794 107.22 25.0081 107.188C25.1229 107.052 25.2378 106.915 25.3526 106.778C25.3686 106.762 25.3813 106.743 25.3973 106.727C25.6556 106.418 25.914 106.107 26.1756 105.798C26.434 105.489 26.6923 105.181 26.9443 104.878C27.5759 104.121 28.182 103.396 28.7147 102.756C28.8199 102.629 28.9252 102.505 29.0241 102.384C29.225 102.142 29.41 101.916 29.5823 101.709C29.611 101.674 29.6333 101.646 29.662 101.614C27.3845 99.5456 24.3574 98.2824 21.0368 98.2824C17.7067 98.2824 14.6796 99.5424 12.4021 101.607Z" fill="white"/>
<path d="M24.7108 117.164C24.529 116.998 24.242 117.046 24.1175 117.259L22.1718 120.632L21.6901 121.462C21.6008 121.615 21.4381 121.71 21.2595 121.71H21.0298H20.8065H20.8001C20.6215 121.71 20.4556 121.615 20.3663 121.459L20.3632 121.456L17.9389 117.253C17.8177 117.039 17.5274 116.995 17.3456 117.157L15.537 118.767L13.0234 121.007C15.2148 122.76 17.9964 123.81 21.0266 123.81C24.0569 123.81 26.8385 122.76 29.033 121.004L28.0665 120.142L24.7108 117.164Z" fill="white"/>
<path d="M11.0272 109.861C10.4403 108.878 9.7513 107.723 9.17074 106.746C9.12927 106.676 9.08779 106.606 9.04632 106.539C8.51362 107.942 8.22021 109.463 8.22021 111.051C8.22021 112.788 8.56786 114.44 9.19944 115.948L9.68751 115.353L12.3095 112.155C12.3127 112.152 12.335 112.126 12.3637 112.088C12.3606 112.085 12.3573 112.082 12.3542 112.075C12.2744 111.951 11.7194 111.022 11.0272 109.861Z" fill="white"/>
<path d="M21.0526 90C9.42583 90 0 99.3959 0 110.987C0 122.579 9.42583 131.975 21.0526 131.975C32.6794 131.975 42.1053 122.579 42.1053 110.987C42.1053 99.3959 32.6794 90 21.0526 90ZM37.5119 122.054H37.5024H30.2392C30.2297 122.054 30.2169 122.05 30.2074 122.047C30.2041 122.05 30.2041 122.05 30.201 122.054L30.1978 122.05C27.7098 124.112 24.5135 125.353 21.0271 125.353C17.5407 125.353 14.3445 124.112 11.8596 122.05H11.8565C11.8533 122.047 11.8533 122.047 11.8501 122.044C11.8405 122.047 11.8309 122.05 11.8182 122.05H4.55502H4.54545C4.40192 122.05 4.32536 121.885 4.41467 121.777L8.10526 117.275C7.18982 115.391 6.67624 113.278 6.67624 111.045C6.67624 103.144 13.1005 96.7391 21.0271 96.7391C28.9538 96.7391 35.378 103.144 35.378 111.045C35.378 113.275 34.8644 115.388 33.9521 117.271L35.3525 118.977L37.6427 121.77L37.6491 121.777C37.7321 121.888 37.6555 122.054 37.5119 122.054Z" fill="white"/>
<path d="M32.8897 106.743C32.306 107.72 31.6202 108.875 31.0333 109.858C30.3379 111.023 29.7861 111.949 29.7095 112.076C29.7063 112.079 29.7031 112.082 29.7 112.085L29.7477 112.146C29.751 112.149 29.751 112.152 29.7541 112.155L32.8578 115.942C33.4862 114.434 33.8339 112.782 33.8339 111.048C33.8339 109.46 33.5404 107.943 33.0109 106.543C32.9695 106.609 32.9312 106.676 32.8897 106.743Z" fill="white"/>
<path d="M37.8 66C37.7147 66 37.6347 65.968 37.56 65.904C37.496 65.84 37.464 65.76 37.464 65.664C37.464 65.568 37.5013 65.472 37.576 65.376L40.36 61.744L37.752 58.304C37.6773 58.2187 37.64 58.1227 37.64 58.016C37.64 57.92 37.672 57.84 37.736 57.776C37.8 57.712 37.88 57.68 37.976 57.68H38.792C38.952 57.68 39.0907 57.7653 39.208 57.936L41.336 60.704L43.464 57.952C43.528 57.8667 43.5867 57.8027 43.64 57.76C43.704 57.7067 43.784 57.68 43.88 57.68H44.664C44.76 57.68 44.84 57.712 44.904 57.776C44.968 57.84 45 57.92 45 58.016C45 58.1227 44.9627 58.2187 44.888 58.304L42.248 61.776L45.032 65.376C45.1067 65.472 45.144 65.568 45.144 65.664C45.144 65.76 45.112 65.84 45.048 65.904C44.984 65.968 44.904 66 44.808 66H43.96C43.8 66 43.6613 65.92 43.544 65.76L41.304 62.832L39.032 65.76C38.968 65.8347 38.904 65.8933 38.84 65.936C38.7867 65.9787 38.712 66 38.616 66H37.8Z" fill="#FCFCFC"/>
<g clip-path="url(#clip0)">
<path d="M43.3678 10.2672L47.3642 10.0105C47.4554 10.6598 47.6225 11.143 47.8961 11.4903C48.3367 12.0339 48.9445 12.3057 49.7499 12.3057C50.3425 12.3057 50.8136 12.1698 51.1327 11.8829C51.4366 11.6564 51.6189 11.294 51.6189 10.9165C51.6189 10.5541 51.4518 10.2068 51.1631 9.98032C50.8592 9.70853 50.145 9.43673 49.0205 9.19513C47.1819 8.78744 45.8599 8.24384 45.0849 7.54925C44.3099 6.89995 43.8693 5.94866 43.8997 4.93697C43.8997 4.24238 44.1124 3.54779 44.5075 2.97399C44.9633 2.3247 45.5864 1.8113 46.3309 1.52441C47.1363 1.17711 48.2607 0.995911 49.6739 0.995911C51.4062 0.995911 52.7282 1.31301 53.6399 1.9623C54.5516 2.5965 55.0987 3.62329 55.2658 5.02757L51.315 5.25407C51.2086 4.65008 50.9959 4.21218 50.6464 3.92528C50.2969 3.63839 49.8411 3.50249 49.2484 3.50249C48.7622 3.50249 48.3975 3.60819 48.1544 3.80448C47.9264 3.98568 47.7745 4.25748 47.7897 4.55948C47.7897 4.78597 47.9113 4.99737 48.0936 5.13327C48.2911 5.31447 48.7622 5.48057 49.5068 5.63157C51.3454 6.02416 52.6522 6.41676 53.4576 6.82445C54.2629 7.23215 54.8403 7.73045 55.1898 8.31934C55.5545 8.92333 55.7369 9.61793 55.7217 10.3276C55.7217 11.1732 55.4785 12.0188 54.9923 12.7285C54.4908 13.4684 53.7919 14.0422 52.9713 14.3895C52.1052 14.767 51.0111 14.9633 49.7043 14.9633C47.3946 14.9633 45.7991 14.5254 44.9026 13.6345C44.006 12.7436 43.4742 11.6262 43.3678 10.2672ZM0.957553 14.7368V1.23751H7.96262C9.25423 1.23751 10.2571 1.34321 10.9409 1.56971C11.6095 1.7811 12.2021 2.219 12.5972 2.80789C13.0379 3.45719 13.2506 4.21218 13.2354 4.99737C13.281 6.32616 12.5972 7.59455 11.4272 8.25894C10.9713 8.51564 10.4699 8.69684 9.95321 8.78744C10.3331 8.89314 10.713 9.07433 11.0473 9.28573C11.3056 9.49713 11.5183 9.73873 11.7159 9.99542C11.9438 10.2521 12.1413 10.539 12.3085 10.841L14.3447 14.7519H9.57333L7.32441 10.5994C7.0357 10.0709 6.79258 9.72363 6.56464 9.55753C6.26074 9.34613 5.89605 9.24043 5.53136 9.24043H5.16667V14.7217H0.957553V14.7368ZM5.16667 6.70366H6.94453C7.32441 6.67346 7.6891 6.61306 8.05379 6.52246C8.32731 6.47716 8.57043 6.32616 8.73758 6.09966C9.14786 5.55607 9.08708 4.78597 8.58563 4.31788C8.31211 4.09138 7.78027 3.97058 7.02051 3.97058H5.16667V6.70366ZM0.000244141 26.3033L3.99663 26.0466C4.0878 26.6959 4.25495 27.1791 4.52846 27.5264C4.95394 28.07 5.57695 28.3568 6.3823 28.3568C6.97492 28.3568 7.44598 28.2209 7.76508 27.9341C8.06899 27.6925 8.25133 27.3452 8.25133 26.9677C8.25133 26.6053 8.08418 26.258 7.79547 26.0315C7.49156 25.7597 6.77738 25.4879 5.63773 25.2463C3.79909 24.8386 2.47709 24.295 1.70213 23.6004C0.927162 22.9511 0.486496 21.9998 0.516887 20.9881C0.516887 20.2935 0.729622 19.5989 1.1247 19.0251C1.58056 18.3758 2.20357 17.8624 2.94815 17.5756C3.7535 17.2283 4.87796 17.0471 6.29113 17.0471C8.0234 17.0471 9.3454 17.3642 10.2571 18.0134C11.1688 18.6627 11.7007 19.6744 11.8678 21.0787L7.91703 21.3052C7.81066 20.7012 7.59793 20.2633 7.24844 19.9764C6.91414 19.6895 6.44308 19.5536 5.85046 19.5687C5.36421 19.5687 4.99952 19.6744 4.7564 19.8858C4.51327 20.067 4.37651 20.3388 4.39171 20.6408C4.39171 20.8673 4.51327 21.0787 4.69561 21.2146C4.89315 21.3958 5.36421 21.5619 6.10878 21.7129C7.94742 22.1055 9.25422 22.4981 10.0596 22.9058C10.8649 23.3135 11.4424 23.8118 11.7919 24.4007C12.1565 25.0047 12.3389 25.6993 12.3389 26.3939C12.3389 27.2395 12.0806 28.07 11.6095 28.7796C11.1081 29.5195 10.4091 30.0933 9.58852 30.4406C8.72239 30.8181 7.62832 31.0144 6.32152 31.0144C4.01182 31.0144 2.41631 30.5765 1.51978 29.6856C0.623254 28.7796 0.121807 27.6623 0.000244141 26.3033H0.000244141Z" fill="white"/>
<path d="M20.2097 25.2465L23.887 26.3488C23.6894 27.2699 23.2792 28.1457 22.7169 28.9158C22.2003 29.5953 21.5165 30.1238 20.7415 30.4711C19.9514 30.8184 18.9485 30.9996 17.7328 30.9996C16.2589 30.9996 15.0433 30.7882 14.1163 30.3654C13.1742 29.9426 12.3689 29.1876 11.6851 28.1155C11.0013 27.0434 10.667 25.6693 10.667 23.9932C10.667 21.7585 11.2596 20.0371 12.46 18.8442C13.6605 17.6513 15.3472 17.0473 17.5353 17.0473C19.2524 17.0473 20.5896 17.3946 21.5773 18.0741C22.5498 18.7687 23.2792 19.8257 23.7654 21.2451L20.0577 22.0605C19.9666 21.7434 19.8298 21.4263 19.6475 21.1545C19.4195 20.8374 19.1308 20.5958 18.7813 20.4146C18.4318 20.2334 18.0367 20.1579 17.6417 20.1579C16.6844 20.1579 15.955 20.5354 15.4535 21.3055C15.0737 21.8642 14.8761 22.755 14.8761 23.963C14.8761 25.4579 15.104 26.4847 15.5599 27.0434C16.0158 27.6021 16.654 27.8739 17.4897 27.8739C18.2951 27.8739 18.9029 27.6474 19.3132 27.2095C19.7234 26.7414 20.0273 26.0921 20.2097 25.2465ZM28.7951 17.2738H32.989V22.0001H37.578V17.2738H41.8023V30.7731H37.578V25.3069H32.989V30.7731H28.7951V17.2738Z" fill="white"/>
<path d="M41.2251 24.0234C41.2251 21.8188 41.8481 20.0974 43.0789 18.8743C44.3098 17.6513 46.042 17.0322 48.2454 17.0322C50.5095 17.0322 52.2417 17.6362 53.4726 18.8441C54.7034 20.0521 55.3112 21.7433 55.3112 23.9177C55.3112 25.5032 55.0377 26.7867 54.5059 27.7984C53.9892 28.795 53.1839 29.6103 52.1962 30.1539C51.1781 30.7126 49.9169 30.9995 48.4125 30.9995C46.8778 30.9995 45.6166 30.7579 44.6137 30.2747C43.5804 29.7613 42.7294 28.9611 42.1672 27.9796C41.5442 26.9226 41.2251 25.6089 41.2251 24.0234ZM45.419 24.0385C45.419 25.3975 45.6773 26.379 46.1788 26.983C46.6802 27.5719 47.3792 27.8739 48.2606 27.8739C49.1571 27.8739 49.8561 27.587 50.3575 26.9981C50.859 26.4092 51.1021 25.3673 51.1021 23.8573C51.1021 22.5889 50.8438 21.6527 50.3271 21.0789C49.8105 20.49 49.1115 20.2031 48.2302 20.2031C47.4552 20.1729 46.7106 20.5051 46.194 21.094C45.6773 21.6829 45.419 22.6644 45.419 24.0385ZM59.6115 24.0234C59.6115 21.8188 60.2345 20.0974 61.4653 18.8743C62.6962 17.6513 64.4284 17.0322 66.6318 17.0322C68.8959 17.0322 70.6433 17.6362 71.859 18.8441C73.0746 20.0521 73.6976 21.7433 73.6976 23.9177C73.6976 25.5032 73.4241 26.7867 72.8923 27.7984C72.3756 28.795 71.5703 29.6103 70.5826 30.1539C69.5645 30.7126 68.3033 30.9995 66.7989 30.9995C65.2642 30.9995 64.003 30.7579 63.0001 30.2747C61.9668 29.7613 61.1158 28.9611 60.5536 27.9796C59.9306 26.9226 59.6115 25.6089 59.6115 24.0234ZM63.8054 24.0385C63.8054 25.3975 64.0637 26.379 64.5652 26.983C65.0666 27.5719 65.7656 27.8739 66.647 27.8739C67.5435 27.8739 68.2425 27.587 68.7439 26.9981C69.2454 26.4092 69.4885 25.3673 69.4885 23.8573C69.4885 22.5889 69.2302 21.6527 68.7135 21.0789C68.1969 20.49 67.4979 20.2031 66.6166 20.2031C65.8416 20.1729 65.0818 20.5051 64.5804 21.094C64.0637 21.6829 63.8054 22.6644 63.8054 24.0385Z" fill="white"/>
<path d="M73.2569 17.2739H77.4508V27.4512H84V30.7731H73.2417V17.2739H73.2569Z" fill="white"/>
<path d="M68.614 16.497C72.8329 13.3304 74.1352 7.96435 71.5228 4.51156C68.9104 1.05876 63.3726 0.826724 59.1538 3.99329C54.9349 7.15986 53.6326 12.5259 56.245 15.9787C58.8574 19.4315 64.3952 19.6635 68.614 16.497Z" stroke="white" stroke-width="1.17433" stroke-miterlimit="10"/>
<path d="M68.614 16.497C72.8329 13.3304 74.1352 7.96435 71.5228 4.51156C68.9104 1.05876 63.3726 0.826724 59.1538 3.99329C54.9349 7.15986 53.6326 12.5259 56.245 15.9787C58.8574 19.4315 64.3952 19.6635 68.614 16.497Z" stroke="white" stroke-width="1.17433" stroke-miterlimit="10"/>
<path d="M59.6268 9.25569L61.1463 8.1987L63.0154 10.8412C63.3345 11.264 63.5776 11.717 63.76 12.2153C63.8663 12.5928 63.8359 13.0004 63.684 13.3628C63.4864 13.8158 63.1673 14.1933 62.7419 14.4651C62.2404 14.8124 61.8149 15.0087 61.4503 15.0691C61.1008 15.1295 60.7361 15.0691 60.4018 14.9181C60.0371 14.7369 59.718 14.4802 59.4749 14.148L60.7817 12.94C60.888 13.1061 61.0248 13.2571 61.1767 13.3779C61.2831 13.4534 61.4047 13.4987 61.5414 13.4987C61.6478 13.4987 61.7542 13.4534 61.8301 13.393C61.9821 13.3024 62.0885 13.1212 62.0733 12.94C62.0277 12.6834 61.9213 12.4267 61.7542 12.2304L59.6268 9.25569ZM64.1854 10.9318L65.5682 9.84458C65.7202 10.0258 65.9177 10.1617 66.1304 10.2372C66.4343 10.3278 66.7534 10.2674 67.0118 10.0711C67.1941 9.95028 67.3461 9.78418 67.4068 9.57278C67.498 9.30099 67.3461 8.99899 67.0725 8.90839C67.027 8.89329 66.9814 8.87819 66.9358 8.87819C66.7534 8.86309 66.4343 8.93859 65.9633 9.13489C65.1883 9.45198 64.5805 9.57278 64.1246 9.52748C63.684 9.48218 63.2737 9.25569 63.0306 8.87819C62.8482 8.62149 62.7571 8.31949 62.7419 8.0175C62.7419 7.6702 62.833 7.3229 63.0306 7.03601C63.3193 6.62831 63.6688 6.28102 64.0942 6.00922C64.7325 5.57132 65.2947 5.35992 65.7809 5.35992C66.2672 5.35992 66.723 5.58642 67.1485 6.05452L65.7809 7.12661C65.5074 6.77931 64.9908 6.70381 64.6413 6.97561L64.5957 7.02091C64.4437 7.11151 64.3374 7.24741 64.2766 7.4135C64.231 7.5343 64.2614 7.6702 64.3374 7.7759C64.3982 7.8514 64.4893 7.9118 64.5957 7.9118C64.7173 7.9269 64.93 7.8665 65.2339 7.7306C65.9937 7.4135 66.5711 7.23231 66.9662 7.17191C67.3005 7.11151 67.65 7.14171 67.9691 7.27761C68.2578 7.3984 68.5009 7.6098 68.6681 7.8665C68.8808 8.1685 69.0024 8.53089 69.0176 8.90839C69.0327 9.30099 68.9264 9.67848 68.7136 10.0107C68.4401 10.4184 68.0906 10.7657 67.6804 11.0375C66.8446 11.6113 66.1608 11.8529 65.6138 11.7623C65.0212 11.6717 64.5349 11.3697 64.1854 10.9318Z" fill="white"/>
</g>
<defs>
<clipPath id="clip0">
<rect width="84" height="31" fill="white"/>
</clipPath>
</defs>
</svg>
