<svg width="264" height="49" viewBox="0 0 264 49" fill="none" xmlns="http://www.w3.org/2000/svg">
<g clip-path="url(#clip0)">
<path d="M214.661 18.5856L219.514 18.2709C219.624 19.0668 219.827 19.6591 220.159 20.0849C220.695 20.7512 221.433 21.0844 222.411 21.0844C223.13 21.0844 223.702 20.9178 224.09 20.5661C224.459 20.2885 224.68 19.8442 224.68 19.3815C224.68 18.9373 224.477 18.5116 224.127 18.2339C223.757 17.9007 222.89 17.5676 221.525 17.2714C219.292 16.7717 217.687 16.1053 216.746 15.2539C215.805 14.458 215.27 13.2919 215.307 12.0517C215.307 11.2003 215.565 10.3489 216.045 9.64551C216.598 8.8496 217.355 8.22028 218.259 7.8686C219.237 7.44288 220.602 7.22076 222.318 7.22076C224.422 7.22076 226.027 7.60946 227.134 8.40537C228.241 9.18277 228.905 10.4414 229.108 12.1628L224.311 12.4404C224.182 11.7001 223.924 11.1633 223.499 10.8116C223.075 10.4599 222.521 10.2933 221.802 10.2933C221.211 10.2933 220.768 10.4229 220.473 10.6635C220.196 10.8856 220.012 11.2188 220.03 11.589C220.03 11.8666 220.178 12.1258 220.399 12.2924C220.639 12.5145 221.211 12.7181 222.115 12.9032C224.348 13.3844 225.935 13.8657 226.913 14.3654C227.891 14.8652 228.592 15.476 229.016 16.1979C229.459 16.9383 229.68 17.7897 229.662 18.6596C229.662 19.6962 229.367 20.7327 228.776 21.6026C228.167 22.5096 227.319 23.213 226.322 23.6387C225.271 24.1014 223.942 24.3421 222.355 24.3421C219.551 24.3421 217.613 23.8053 216.524 22.7132C215.436 21.6212 214.79 20.2515 214.661 18.5856ZM163.163 24.0644V7.51692H171.669C173.237 7.51692 174.455 7.64648 175.285 7.92413C176.097 8.18326 176.817 8.72003 177.297 9.4419C177.832 10.2378 178.09 11.1633 178.072 12.1258C178.127 13.7546 177.297 15.3094 175.876 16.1238C175.322 16.4385 174.713 16.6606 174.086 16.7717C174.547 16.9012 175.009 17.1233 175.415 17.3825C175.728 17.6416 175.986 17.9378 176.226 18.2524C176.503 18.5671 176.743 18.9188 176.946 19.289L179.418 24.0829H173.625L170.894 18.9928C170.543 18.345 170.248 17.9193 169.971 17.7157C169.602 17.4565 169.159 17.327 168.717 17.327H168.274V24.0459H163.163V24.0644ZM168.274 14.2174H170.433C170.894 14.1803 171.337 14.1063 171.78 13.9952C172.112 13.9397 172.407 13.7546 172.61 13.477C173.108 12.8106 173.034 11.8666 172.425 11.2929C172.093 11.0152 171.447 10.8671 170.525 10.8671H168.274V14.2174ZM162 38.2427L166.853 37.928C166.964 38.7239 167.167 39.3162 167.499 39.742C168.015 40.4083 168.772 40.76 169.75 40.76C170.469 40.76 171.041 40.5934 171.429 40.2417C171.798 39.9456 172.019 39.5198 172.019 39.0571C172.019 38.6129 171.816 38.1872 171.466 37.9095C171.097 37.5763 170.23 37.2432 168.846 36.947C166.613 36.4473 165.008 35.7809 164.067 34.9295C163.126 34.1336 162.591 32.9675 162.628 31.7273C162.628 30.8759 162.886 30.0245 163.366 29.3211C163.919 28.5252 164.676 27.8959 165.58 27.5442C166.558 27.1185 167.923 26.8964 169.639 26.8964C171.743 26.8964 173.348 27.2851 174.455 28.081C175.562 28.8769 176.208 30.117 176.411 31.8384L171.613 32.116C171.484 31.3757 171.226 30.8389 170.802 30.4872C170.396 30.1355 169.824 29.9689 169.104 29.9874C168.514 29.9874 168.071 30.117 167.776 30.3761C167.48 30.5983 167.314 30.9314 167.333 31.3016C167.333 31.5793 167.48 31.8384 167.702 32.005C167.942 32.2271 168.514 32.4307 169.418 32.6158C171.65 33.097 173.237 33.5783 174.215 34.078C175.193 34.5778 175.894 35.1886 176.319 35.9105C176.761 36.6509 176.983 37.5023 176.983 38.3537C176.983 39.3903 176.669 40.4083 176.097 41.2782C175.488 42.1852 174.64 42.8886 173.643 43.3143C172.591 43.777 171.263 44.0176 169.676 44.0176C166.871 44.0176 164.934 43.4809 163.845 42.3888C162.757 41.2782 162.148 39.9085 162 38.2427V38.2427Z" fill="white"/>
<path d="M186.54 36.9474L191.006 38.2986C190.766 39.4277 190.268 40.5012 189.585 41.4452C188.958 42.2781 188.127 42.926 187.186 43.3517C186.227 43.7774 185.009 43.9995 183.533 43.9995C181.743 43.9995 180.267 43.7404 179.141 43.2221C177.997 42.7038 177.019 41.7784 176.189 40.4642C175.359 39.15 174.953 37.4657 174.953 35.4111C174.953 32.6717 175.672 30.5616 177.13 29.0994C178.588 27.6371 180.636 26.8967 183.293 26.8967C185.378 26.8967 187.002 27.3224 188.201 28.1554C189.382 29.0068 190.268 30.3025 190.858 32.0424L186.356 33.0419C186.245 32.6532 186.079 32.2645 185.858 31.9313C185.581 31.5426 185.23 31.2465 184.806 31.0243C184.382 30.8022 183.902 30.7097 183.422 30.7097C182.26 30.7097 181.374 31.1724 180.765 32.1164C180.304 32.8013 180.064 33.8933 180.064 35.3741C180.064 37.2065 180.341 38.4652 180.894 39.15C181.448 39.8349 182.223 40.168 183.238 40.168C184.216 40.168 184.954 39.8904 185.452 39.3536C185.95 38.7798 186.319 37.9839 186.54 36.9474ZM196.966 27.1744H202.058V32.9678H207.631V27.1744H212.76V43.7219H207.631V37.0214H202.058V43.7219H196.966V27.1744Z" fill="white"/>
<path d="M212.059 35.448C212.059 32.7456 212.816 30.6355 214.31 29.1363C215.805 27.637 217.908 26.8781 220.584 26.8781C223.333 26.8781 225.436 27.6185 226.931 29.0993C228.426 30.58 229.164 32.6531 229.164 35.3184C229.164 37.2619 228.832 38.8353 228.186 40.0754C227.558 41.297 226.58 42.2965 225.381 42.9629C224.145 43.6477 222.613 43.9994 220.787 43.9994C218.923 43.9994 217.392 43.7032 216.174 43.1109C214.919 42.4816 213.886 41.5006 213.203 40.2975C212.447 39.0018 212.059 37.3915 212.059 35.448ZM217.152 35.4665C217.152 37.1324 217.465 38.3355 218.074 39.0759C218.683 39.7977 219.532 40.1679 220.602 40.1679C221.691 40.1679 222.54 39.8163 223.148 39.0944C223.757 38.3725 224.053 37.0954 224.053 35.2444C224.053 33.6896 223.739 32.542 223.112 31.8387C222.484 31.1168 221.635 30.7651 220.565 30.7651C219.624 30.7281 218.72 31.1353 218.093 31.8572C217.465 32.579 217.152 33.7822 217.152 35.4665ZM234.385 35.448C234.385 32.7456 235.142 30.6355 236.637 29.1363C238.131 27.637 240.235 26.8781 242.91 26.8781C245.659 26.8781 247.781 27.6185 249.257 29.0993C250.733 30.58 251.49 32.6531 251.49 35.3184C251.49 37.2619 251.158 38.8353 250.512 40.0754C249.885 41.297 248.907 42.2965 247.707 42.9629C246.471 43.6477 244.94 43.9994 243.113 43.9994C241.249 43.9994 239.718 43.7032 238.5 43.1109C237.245 42.4816 236.212 41.5006 235.529 40.2975C234.773 39.0018 234.385 37.3915 234.385 35.448ZM239.478 35.4665C239.478 37.1324 239.792 38.3355 240.401 39.0759C241.01 39.7977 241.858 40.1679 242.928 40.1679C244.017 40.1679 244.866 39.8163 245.475 39.0944C246.084 38.3725 246.379 37.0954 246.379 35.2444C246.379 33.6896 246.065 32.542 245.438 31.8387C244.811 31.1168 243.962 30.7651 242.892 30.7651C241.951 30.7281 241.028 31.1353 240.419 31.8572C239.792 32.579 239.478 33.7822 239.478 35.4665Z" fill="white"/>
<path d="M250.955 27.1744H256.048V39.6498H264V43.7219H250.937V27.1744H250.955Z" fill="white"/>
<path d="M245.317 26.2221C250.44 22.3405 252.021 15.7627 248.849 11.5303C245.677 7.29779 238.952 7.01336 233.83 10.895C228.707 14.7766 227.125 21.3543 230.297 25.5868C233.47 29.8192 240.194 30.1037 245.317 26.2221Z" stroke="white" stroke-width="1.17433" stroke-miterlimit="10"/>
<path d="M245.317 26.2221C250.44 22.3405 252.021 15.7627 248.849 11.5303C245.677 7.29779 238.952 7.01336 233.83 10.895C228.707 14.7766 227.125 21.3543 230.297 25.5868C233.47 29.8192 240.194 30.1037 245.317 26.2221Z" stroke="white" stroke-width="1.17433" stroke-miterlimit="10"/>
<path d="M234.404 17.3456L236.249 16.05L238.519 19.2891C238.906 19.8074 239.201 20.3627 239.423 20.9735C239.552 21.4362 239.515 21.936 239.331 22.3802C239.091 22.9355 238.703 23.3982 238.187 23.7314C237.578 24.1571 237.061 24.3978 236.618 24.4718C236.194 24.5458 235.751 24.4718 235.345 24.2867C234.902 24.0646 234.515 23.7499 234.219 23.3427L235.806 21.862C235.935 22.0656 236.102 22.2507 236.286 22.3987C236.415 22.4913 236.563 22.5468 236.729 22.5468C236.858 22.5468 236.987 22.4913 237.079 22.4172C237.264 22.3062 237.393 22.0841 237.375 21.862C237.319 21.5473 237.19 21.2326 236.987 20.992L234.404 17.3456ZM239.939 19.4002L241.619 18.0675C241.803 18.2896 242.043 18.4562 242.301 18.5488C242.67 18.6598 243.058 18.5858 243.371 18.3452C243.593 18.1971 243.777 17.9935 243.851 17.7343C243.962 17.4012 243.777 17.031 243.445 16.9199C243.39 16.9014 243.335 16.8829 243.279 16.8829C243.058 16.8644 242.67 16.9569 242.098 17.1976C241.157 17.5863 240.419 17.7343 239.866 17.6788C239.331 17.6233 238.832 17.3456 238.537 16.8829C238.316 16.5682 238.205 16.1981 238.187 15.8279C238.187 15.4021 238.297 14.9764 238.537 14.6247C238.888 14.125 239.312 13.6993 239.829 13.3661C240.604 12.8293 241.286 12.5702 241.877 12.5702C242.467 12.5702 243.021 12.8478 243.538 13.4216L241.877 14.7358C241.545 14.3101 240.917 14.2175 240.493 14.5507L240.438 14.6062C240.253 14.7173 240.124 14.8839 240.05 15.0875C239.995 15.2356 240.032 15.4021 240.124 15.5317C240.198 15.6243 240.308 15.6983 240.438 15.6983C240.585 15.7168 240.844 15.6428 241.213 15.4762C242.135 15.0875 242.836 14.8654 243.316 14.7913C243.722 14.7173 244.146 14.7543 244.534 14.9209C244.884 15.069 245.18 15.3281 245.383 15.6428C245.641 16.013 245.789 16.4572 245.807 16.9199C245.826 17.4012 245.696 17.8639 245.438 18.2711C245.106 18.7709 244.682 19.1966 244.183 19.5298C243.168 20.2331 242.338 20.5293 241.674 20.4182C240.954 20.3072 240.364 19.937 239.939 19.4002Z" fill="white"/>
</g>
<path d="M123.8 30C123.715 30 123.635 29.968 123.56 29.904C123.496 29.84 123.464 29.76 123.464 29.664C123.464 29.568 123.501 29.472 123.576 29.376L126.36 25.744L123.752 22.304C123.677 22.2187 123.64 22.1227 123.64 22.016C123.64 21.92 123.672 21.84 123.736 21.776C123.8 21.712 123.88 21.68 123.976 21.68H124.792C124.952 21.68 125.091 21.7653 125.208 21.936L127.336 24.704L129.464 21.952C129.528 21.8667 129.587 21.8027 129.64 21.76C129.704 21.7067 129.784 21.68 129.88 21.68H130.664C130.76 21.68 130.84 21.712 130.904 21.776C130.968 21.84 131 21.92 131 22.016C131 22.1227 130.963 22.2187 130.888 22.304L128.248 25.776L131.032 29.376C131.107 29.472 131.144 29.568 131.144 29.664C131.144 29.76 131.112 29.84 131.048 29.904C130.984 29.968 130.904 30 130.808 30H129.96C129.8 30 129.661 29.92 129.544 29.76L127.304 26.832L125.032 29.76C124.968 29.8347 124.904 29.8933 124.84 29.936C124.787 29.9787 124.712 30 124.616 30H123.8Z" fill="#FCFCFC"/>
<path d="M67.1807 14.5368V20.8219C67.1807 22.1982 66.7978 23.2523 66.0321 23.984C65.2663 24.7245 64.209 25.0947 62.8603 25.0947C62.0858 25.0947 61.3766 24.9858 60.7327 24.768C60.0887 24.5589 59.5405 24.2584 59.0881 23.8664L59.9104 22.2984C60.737 22.9691 61.7029 23.3045 62.8081 23.3045C63.5738 23.3045 64.1394 23.1129 64.5049 22.7296C64.879 22.3376 65.0662 21.7365 65.0662 20.9264V20.3645C64.457 21.1137 63.5955 21.4883 62.4817 21.4883C61.3244 21.4883 60.4325 21.1616 59.806 20.5083C59.1881 19.8462 58.8792 18.8967 58.8792 17.6597V14.5368H60.9937V17.5291C60.9937 18.2434 61.1634 18.7835 61.5028 19.1493C61.8422 19.5152 62.3207 19.6981 62.9386 19.6981C63.5912 19.6981 64.1089 19.5065 64.4918 19.1232C64.8747 18.7399 65.0662 18.1606 65.0662 17.3853V14.5368H67.1807ZM76.7373 22.8995C76.3021 23.1957 75.7539 23.4265 75.0926 23.592C74.44 23.7575 73.7438 23.8403 73.0042 23.8403C72.0818 23.8403 71.2986 23.727 70.6547 23.5005C70.0107 23.2653 69.5235 22.943 69.1928 22.5336C68.8621 22.1155 68.6968 21.6407 68.6968 21.1093C68.6968 20.6215 68.8317 20.1903 69.1015 19.8157C69.3712 19.4411 69.741 19.1624 70.2109 18.9795C69.8541 18.7878 69.5757 18.5265 69.3756 18.1955C69.1841 17.8645 69.0884 17.4942 69.0884 17.0848C69.0884 16.5883 69.2406 16.1353 69.5453 15.7259C69.8498 15.3165 70.311 14.9898 70.9288 14.7459C71.5466 14.5019 72.3037 14.38 73.2 14.38C73.7917 14.38 74.3703 14.441 74.936 14.5629C75.5016 14.6762 75.9933 14.833 76.4109 15.0333L75.8236 16.6536C75.023 16.279 74.1745 16.0917 73.2783 16.0917C72.5996 16.0917 72.0861 16.1963 71.7381 16.4053C71.3987 16.6057 71.2291 16.8801 71.2291 17.2285C71.2291 17.5509 71.3421 17.7991 71.5684 17.9733C71.8034 18.1389 72.1558 18.2216 72.6257 18.2216H75.1187V19.8941H72.4952C71.9643 19.8941 71.5554 19.9856 71.2682 20.1685C70.981 20.3515 70.8375 20.6171 70.8375 20.9656C70.8375 21.3315 71.0202 21.6189 71.3857 21.828C71.7598 22.0283 72.3298 22.1285 73.0956 22.1285C73.6351 22.1285 74.1745 22.0589 74.7141 21.9195C75.2536 21.7714 75.7104 21.5667 76.0846 21.3053L76.7373 22.8995ZM88.4063 14.38C89.4856 14.38 90.3251 14.6979 90.9255 15.3339C91.5259 15.9611 91.8261 16.8714 91.8261 18.0648V23.6835H89.7116V18.1301C89.7116 17.4855 89.5419 17.0021 89.2025 16.6797C88.8721 16.3487 88.4324 16.1832 87.8842 16.1832C87.2838 16.1832 86.8049 16.3574 86.4484 16.7059C86.0919 17.0456 85.9133 17.5639 85.9133 18.2608V23.6835H83.7987V18.1301C83.7987 17.4855 83.6421 17.0021 83.3288 16.6797C83.0156 16.3487 82.5889 16.1832 82.0497 16.1832C81.4578 16.1832 80.9836 16.3574 80.6268 16.7059C80.27 17.0456 80.0916 17.5639 80.0916 18.2608V23.6835H77.9771V14.5368H80.0264V15.6605C80.3049 15.2511 80.6747 14.9375 81.1358 14.7197C81.5969 14.4933 82.128 14.38 82.7284 14.38C83.3549 14.38 83.9032 14.4976 84.3731 14.7328C84.843 14.9593 85.2043 15.2903 85.4564 15.7259C85.7697 15.2903 86.1784 14.9593 86.6834 14.7328C87.1965 14.4976 87.7708 14.38 88.4063 14.38ZM58.752 27.4401H61.865C62.609 27.4401 63.2649 27.5839 63.8327 27.8713C64.407 28.1523 64.8508 28.5508 65.1641 29.0669C65.4839 29.5831 65.6437 30.1841 65.6437 30.8701C65.6437 31.5561 65.4839 32.1572 65.1641 32.6733C64.8508 33.1895 64.407 33.5913 63.8327 33.8787C63.2649 34.1597 62.609 34.3001 61.865 34.3001H58.752V27.4401ZM61.7867 32.9967C62.472 32.9967 63.0169 32.8073 63.4215 32.4283C63.8327 32.0429 64.0383 31.5235 64.0383 30.8701C64.0383 30.2168 63.8327 29.7007 63.4215 29.3217C63.0169 28.9363 62.472 28.7435 61.7867 28.7435H60.3378V32.9967H61.7867ZM66.732 29.0277H68.2592V34.3001H66.732V29.0277ZM67.4956 28.2927C67.215 28.2927 66.9865 28.2111 66.8103 28.0477C66.6341 27.8844 66.546 27.6819 66.546 27.4401C66.546 27.1984 66.6341 26.9959 66.8103 26.8325C66.9865 26.6692 67.215 26.5875 67.4956 26.5875C67.7762 26.5875 68.0046 26.6659 68.1809 26.8227C68.3571 26.9795 68.4452 27.1755 68.4452 27.4107C68.4452 27.6655 68.3571 27.8779 68.1809 28.0477C68.0046 28.2111 67.7762 28.2927 67.4956 28.2927ZM75.1097 29.0277V33.4181C75.1097 34.3851 74.8584 35.1037 74.3559 35.5741C73.8534 36.0445 73.1192 36.2797 72.1533 36.2797C71.6442 36.2797 71.1613 36.2177 70.7044 36.0935C70.2476 35.9694 69.869 35.7897 69.5688 35.5545L70.1758 34.4569C70.3977 34.6399 70.6783 34.7836 71.0177 34.8881C71.357 34.9992 71.6964 35.0547 72.0358 35.0547C72.5644 35.0547 72.9527 34.9339 73.2007 34.6921C73.4553 34.4569 73.5825 34.0976 73.5825 33.6141V33.3887C73.1844 33.8265 72.6297 34.0453 71.9183 34.0453C71.4354 34.0453 70.9916 33.9408 70.5869 33.7317C70.1888 33.5161 69.8723 33.2156 69.6374 32.8301C69.4024 32.4447 69.2849 32.0004 69.2849 31.4973C69.2849 30.9943 69.4024 30.55 69.6374 30.1645C69.8723 29.7791 70.1888 29.4818 70.5869 29.2727C70.9916 29.0571 71.4354 28.9493 71.9183 28.9493C72.6819 28.9493 73.2627 29.2009 73.6608 29.7039V29.0277H75.1097ZM72.2218 32.7909C72.6264 32.7909 72.956 32.6733 73.2105 32.4381C73.4716 32.1964 73.6021 31.8828 73.6021 31.4973C73.6021 31.1119 73.4716 30.8015 73.2105 30.5663C72.956 30.3246 72.6264 30.2037 72.2218 30.2037C71.8172 30.2037 71.4843 30.3246 71.2233 30.5663C70.9622 30.8015 70.8317 31.1119 70.8317 31.4973C70.8317 31.8828 70.9622 32.1964 71.2233 32.4381C71.4843 32.6733 71.8172 32.7909 72.2218 32.7909ZM76.531 29.0277H78.0582V34.3001H76.531V29.0277ZM77.2946 28.2927C77.014 28.2927 76.7856 28.2111 76.6093 28.0477C76.4331 27.8844 76.345 27.6819 76.345 27.4401C76.345 27.1984 76.4331 26.9959 76.6093 26.8325C76.7856 26.6692 77.014 26.5875 77.2946 26.5875C77.5752 26.5875 77.8037 26.6659 77.9799 26.8227C78.1561 26.9795 78.2442 27.1755 78.2442 27.4107C78.2442 27.6655 78.1561 27.8779 77.9799 28.0477C77.8037 28.2111 77.5752 28.2927 77.2946 28.2927ZM82.6477 34.0453C82.4976 34.1564 82.3116 34.2413 82.0897 34.3001C81.8743 34.3524 81.6491 34.3785 81.4139 34.3785C80.7808 34.3785 80.2946 34.2185 79.9552 33.8983C79.6159 33.5782 79.4462 33.1078 79.4462 32.4871V27.8615H80.9733V29.1453H82.2757V30.3213H80.9733V32.4675C80.9733 32.6897 81.0288 32.8628 81.1398 32.9869C81.2507 33.1045 81.4106 33.1633 81.6198 33.1633C81.8547 33.1633 82.0636 33.098 82.2463 32.9673L82.6477 34.0453ZM88.6927 29.0277V34.3001H87.234V33.6925C86.8555 34.1499 86.3073 34.3785 85.5894 34.3785C85.0934 34.3785 84.6431 34.2675 84.2384 34.0453C83.8403 33.8232 83.5271 33.5063 83.2987 33.0947C83.0702 32.6831 82.956 32.2062 82.956 31.6639C82.956 31.1217 83.0702 30.6447 83.2987 30.2331C83.5271 29.8215 83.8403 29.5047 84.2384 29.2825C84.6431 29.0604 85.0934 28.9493 85.5894 28.9493C86.2616 28.9493 86.787 29.1617 87.1655 29.5863V29.0277H88.6927ZM85.8537 33.1241C86.2388 33.1241 86.5586 32.9935 86.8131 32.7321C87.0676 32.4643 87.1949 32.1082 87.1949 31.6639C87.1949 31.2197 87.0676 30.8669 86.8131 30.6055C86.5586 30.3377 86.2388 30.2037 85.8537 30.2037C85.4621 30.2037 85.1391 30.3377 84.8846 30.6055C84.63 30.8669 84.5028 31.2197 84.5028 31.6639C84.5028 32.1082 84.63 32.4643 84.8846 32.7321C85.1391 32.9935 85.4621 33.1241 85.8537 33.1241ZM91.9958 34.3785C91.4019 34.3785 90.9385 34.2217 90.6057 33.9081C90.2728 33.588 90.1064 33.1372 90.1064 32.5557V27.0285H91.6336V32.4675C91.6336 32.6897 91.6891 32.8628 91.8 32.9869C91.9175 33.1045 92.0806 33.1633 92.2895 33.1633C92.3678 33.1633 92.4461 33.1535 92.5244 33.1339C92.6093 33.1143 92.6745 33.0915 92.7202 33.0653L92.7887 34.2511C92.5342 34.3361 92.2699 34.3785 91.9958 34.3785Z" fill="#F2F2F2"/>
<path d="M14.4175 13.5419C14.4508 13.5828 14.4805 13.6162 14.5138 13.657C14.7141 13.8983 14.9291 14.1619 15.1628 14.444C15.2777 14.5851 15.4001 14.7299 15.5225 14.8783C16.1417 15.6244 16.8426 16.4708 17.5805 17.3543C17.8734 17.7069 18.1738 18.067 18.4742 18.4271C18.7745 18.7872 19.0786 19.151 19.3789 19.511C19.3975 19.5333 19.416 19.5556 19.4346 19.5779C19.5717 19.7412 19.7053 19.9045 19.8424 20.0642C19.8647 20.0901 19.8869 20.1199 19.9129 20.1458C20.0204 20.272 20.1243 20.3983 20.2281 20.5245C20.2948 20.6061 20.3616 20.6841 20.4283 20.7658C20.4469 20.7881 20.4654 20.8103 20.4839 20.8326C20.5247 20.8845 20.5693 20.9328 20.6101 20.9848C20.6619 21.0479 20.7138 21.111 20.7658 21.1741C20.788 21.2038 20.814 21.2298 20.8362 21.2594C20.8993 21.3337 20.9623 21.4117 21.0254 21.4859C21.0698 21.5379 21.1106 21.5899 21.1551 21.6418C21.2071 21.7049 21.2589 21.7681 21.3109 21.8311C21.3554 21.8868 21.4036 21.9388 21.448 21.9944C21.4703 22.0205 21.4926 22.0501 21.5185 22.0761C21.589 22.1615 21.6594 22.2469 21.7299 22.3285C21.7522 22.3545 21.7744 22.3806 21.7966 22.4065C21.8374 22.4585 21.8819 22.5067 21.9227 22.555C21.9672 22.607 22.008 22.659 22.0525 22.7109C22.0747 22.7369 22.0932 22.7592 22.1155 22.7851C22.3751 23.0933 22.6162 23.3865 22.8461 23.6575C22.8571 23.6686 22.8682 23.6835 22.8794 23.6947C22.9498 23.7763 23.0129 23.8542 23.0796 23.9322C23.1167 23.9767 23.1538 24.0213 23.1871 24.0622C23.202 24.0807 23.2206 24.103 23.2353 24.1215C23.3466 24.2515 23.4467 24.374 23.5469 24.4927C23.6693 24.6375 23.7842 24.7749 23.8843 24.8936C23.914 24.9308 23.9399 24.9605 23.9659 24.9939L23.9696 24.9976C24.0772 25.1275 24.1735 25.2426 24.2514 25.3354C24.2514 25.3354 24.2514 25.3354 24.2551 25.3391C24.2922 25.3836 24.3293 25.4245 24.3589 25.4616C24.3664 25.469 24.3738 25.4727 24.3812 25.4801C24.422 25.5099 24.4887 25.5135 24.5295 25.4801C24.5369 25.4727 24.5444 25.469 24.5518 25.4616C24.5777 25.4319 24.6074 25.3948 24.6408 25.3576C24.663 25.3279 24.689 25.2983 24.7149 25.2685C24.7743 25.1981 24.841 25.1201 24.9115 25.0347C24.9374 25.005 24.9597 24.979 24.982 24.9493C24.9893 24.9419 24.993 24.9345 25.0005 24.927C25.0375 24.8825 25.0783 24.8342 25.1191 24.786C25.1191 24.7823 25.1228 24.7823 25.1228 24.7823C25.1562 24.7415 25.1932 24.6969 25.2304 24.6524C25.2563 24.619 25.286 24.5856 25.3156 24.5484C25.4195 24.4222 25.5307 24.2923 25.6494 24.1475C25.6642 24.129 25.679 24.1104 25.6976 24.0918C25.7458 24.0324 25.8014 23.9693 25.8533 23.9062C25.9015 23.8506 25.9497 23.7911 25.9979 23.7317C26.1648 23.5313 26.3428 23.3197 26.5282 23.097C26.5653 23.0561 26.5987 23.0116 26.6357 22.9708C26.6469 22.9559 26.6617 22.9411 26.6728 22.9262C26.7247 22.8631 26.7804 22.8 26.8322 22.7332C26.8879 22.6664 26.9435 22.5995 27.0028 22.529C27.0362 22.4882 27.0696 22.451 27.1029 22.4102C27.1178 22.3917 27.1326 22.3768 27.1475 22.3583C27.2253 22.2617 27.3069 22.1652 27.3885 22.0687C27.4107 22.0427 27.4292 22.0205 27.4515 21.9944C27.4775 21.9648 27.5035 21.9351 27.5257 21.9054C27.7259 21.6678 27.9299 21.4228 28.1375 21.1704C28.1857 21.111 28.2377 21.0516 28.2858 20.9922C28.2932 20.9848 28.3007 20.9736 28.3081 20.9662C28.3712 20.8883 28.4379 20.8103 28.5046 20.7324C28.5603 20.6692 28.6121 20.6024 28.6678 20.5393C28.7716 20.4168 28.8755 20.2906 28.9793 20.1644C29.0089 20.1273 29.0386 20.0901 29.072 20.0531C29.2055 19.8934 29.339 19.7338 29.4725 19.5742C29.491 19.5556 29.5058 19.5333 29.5244 19.5148C29.8247 19.1547 30.1251 18.7909 30.4291 18.4308C30.7295 18.0708 31.0299 17.7107 31.3228 17.3581C32.0571 16.4745 32.7616 15.6282 33.3808 14.882C33.5032 14.7335 33.6256 14.5888 33.7405 14.4477C33.9742 14.1656 34.1892 13.902 34.3895 13.6608C34.4228 13.6199 34.4488 13.5865 34.4821 13.5494C31.8345 11.1365 28.3155 9.66278 24.4554 9.66278C20.584 9.66278 17.065 11.1328 14.4175 13.5419Z" fill="white"/>
<path d="M28.7265 31.6908C28.5151 31.4978 28.1814 31.5535 28.0368 31.8021L25.7748 35.737L25.2149 36.7059C25.111 36.884 24.9219 36.9954 24.7143 36.9954H24.4473H24.1877H24.1803C23.9727 36.9954 23.7798 36.884 23.676 36.7021L23.6723 36.6984L20.8541 31.7947C20.7132 31.546 20.3758 31.494 20.1644 31.6834L18.0619 33.5617L15.1399 36.175C17.6874 38.2204 20.9209 39.4454 24.4436 39.4454C27.9663 39.4454 31.1999 38.2204 33.751 36.1713L32.6275 35.1653L28.7265 31.6908Z" fill="white"/>
<path d="M12.8193 23.1712C12.137 22.0241 11.336 20.6767 10.6611 19.537C10.6129 19.4554 10.5647 19.3737 10.5165 19.2957C9.89723 20.9328 9.55615 22.7072 9.55615 24.5595C9.55615 26.5863 9.96029 28.5129 10.6945 30.2725L11.2619 29.5784L14.3099 25.8477C14.3137 25.8439 14.3396 25.8143 14.373 25.7697C14.3693 25.766 14.3656 25.7622 14.3619 25.7548C14.2691 25.6101 13.6239 24.5261 12.8193 23.1712Z" fill="white"/>
<path d="M24.4737 0C10.9575 0 0 10.9619 0 24.4851C0 38.0084 10.9575 48.9703 24.4737 48.9703C37.9898 48.9703 48.9474 38.0084 48.9474 24.4851C48.9474 10.9619 37.9898 0 24.4737 0ZM43.6076 37.3959H43.5965H35.1531C35.142 37.3959 35.1272 37.3922 35.1161 37.3885C35.1123 37.3922 35.1123 37.3922 35.1086 37.3959L35.1049 37.3922C32.2126 39.7976 28.497 41.2453 24.444 41.2453C20.3911 41.2453 16.6755 39.7976 13.7868 37.3922H13.7832C13.7794 37.3885 13.7794 37.3885 13.7757 37.3848C13.7646 37.3885 13.7535 37.3922 13.7386 37.3922H5.29522H5.28409C5.11723 37.3922 5.02823 37.1992 5.13206 37.073L9.42237 31.8203C8.35817 29.6227 7.76113 27.1578 7.76113 24.5519C7.76113 15.3348 15.2293 7.86227 24.444 7.86227C33.6587 7.86227 41.1269 15.3348 41.1269 24.5519C41.1269 27.1542 40.5299 29.619 39.4694 31.8166L41.0973 33.8063L43.7597 37.0656L43.7671 37.073C43.8635 37.2028 43.7745 37.3959 43.6076 37.3959Z" fill="white"/>
<path d="M38.2342 19.5336C37.5556 20.6732 36.7584 22.0207 36.0761 23.1677C35.2678 24.5263 34.6262 25.6066 34.5372 25.7551C34.5335 25.7588 34.5298 25.7625 34.5261 25.7662L34.5817 25.8368C34.5854 25.8404 34.5854 25.8442 34.5891 25.8479L38.1972 30.2653C38.9276 28.5058 39.3319 26.5792 39.3319 24.5561C39.3319 22.7037 38.9907 20.933 38.3751 19.2997C38.327 19.3777 38.2824 19.4556 38.2342 19.5336Z" fill="white"/>
<defs>
<clipPath id="clip0">
<rect width="102" height="38" fill="white" transform="translate(162 6)"/>
</clipPath>
</defs>
</svg>
