<svg width="128" height="176" viewBox="0 0 128 176" fill="none" xmlns="http://www.w3.org/2000/svg">
<path d="M85.2401 18.3935V26.346C85.2401 28.0875 84.7542 29.4212 83.7827 30.3471C82.811 31.284 81.4695 31.7524 79.7582 31.7524C78.7755 31.7524 77.8757 31.6147 77.0587 31.3391C76.2416 31.0745 75.546 30.6943 74.972 30.1983L76.0154 28.2143C77.0642 29.0629 78.2898 29.4873 79.692 29.4873C80.6635 29.4873 81.3813 29.2448 81.845 28.7599C82.3197 28.2639 82.5571 27.5033 82.5571 26.4783V25.7673C81.7842 26.7152 80.6912 27.1892 79.278 27.1892C77.8095 27.1892 76.6778 26.7759 75.8829 25.9492C75.0989 25.1115 74.707 23.9101 74.707 22.3449V18.3935H77.39V22.1796C77.39 23.0835 77.6053 23.7668 78.0359 24.2297C78.4664 24.6927 79.0736 24.9241 79.8576 24.9241C80.6857 24.9241 81.3425 24.6816 81.8284 24.1967C82.3142 23.7117 82.5571 22.9787 82.5571 21.9977V18.3935H85.2401ZM97.3656 28.9748C96.8135 29.3496 96.1179 29.6416 95.2789 29.8511C94.4508 30.0605 93.5674 30.1652 92.629 30.1652C91.4587 30.1652 90.465 30.0219 89.648 29.7353C88.8309 29.4377 88.2126 29.0299 87.7931 28.5119C87.3735 27.9828 87.1638 27.3821 87.1638 26.7097C87.1638 26.0925 87.3349 25.5469 87.6772 25.0729C88.0194 24.5989 88.4887 24.2463 89.0849 24.0148C88.6321 23.7723 88.2789 23.4416 88.025 23.0228C87.782 22.604 87.6606 22.1355 87.6606 21.6175C87.6606 20.9892 87.8538 20.416 88.2403 19.898C88.6267 19.38 89.2118 18.9667 89.9958 18.658C90.7796 18.3493 91.7402 18.1951 92.8774 18.1951C93.6282 18.1951 94.3624 18.2723 95.0801 18.4265C95.7977 18.5699 96.4216 18.7683 96.9516 19.0217L96.2063 21.0719C95.1905 20.5979 94.114 20.3609 92.9768 20.3609C92.1156 20.3609 91.4641 20.4932 91.0226 20.7577C90.592 21.0112 90.3767 21.3584 90.3767 21.7993C90.3767 22.2072 90.5201 22.5213 90.8073 22.7417C91.1054 22.9512 91.5525 23.0559 92.1488 23.0559H95.312V25.1721H91.9831C91.3096 25.1721 90.7907 25.2879 90.4264 25.5193C90.062 25.7508 89.8798 26.0869 89.8798 26.5279C89.8798 26.9908 90.1117 27.3545 90.5754 27.6191C91.0501 27.8725 91.7733 27.9993 92.745 27.9993C93.4295 27.9993 94.114 27.9112 94.7986 27.7348C95.4831 27.5475 96.0627 27.2884 96.5375 26.9577L97.3656 28.9748ZM112.171 18.1951C113.541 18.1951 114.606 18.5973 115.368 19.402C116.13 20.1956 116.511 21.3475 116.511 22.8575V29.9668H113.828V22.9401C113.828 22.1245 113.612 21.5128 113.182 21.1049C112.763 20.6861 112.205 20.4767 111.509 20.4767C110.747 20.4767 110.14 20.6971 109.687 21.138C109.235 21.5679 109.008 22.2237 109.008 23.1055V29.9668H106.325V22.9401C106.325 22.1245 106.127 21.5128 105.729 21.1049C105.332 20.6861 104.79 20.4767 104.106 20.4767C103.355 20.4767 102.753 20.6971 102.301 21.138C101.848 21.5679 101.622 22.2237 101.622 23.1055V29.9668H98.9387V18.3935H101.539V19.8153C101.892 19.2973 102.361 18.9005 102.947 18.6249C103.532 18.3384 104.205 18.1951 104.967 18.1951C105.762 18.1951 106.458 18.3439 107.054 18.6415C107.65 18.928 108.109 19.3469 108.429 19.898C108.826 19.3469 109.345 18.928 109.985 18.6415C110.636 18.3439 111.365 18.1951 112.171 18.1951ZM74.5455 34.7201H78.4954C79.4394 34.7201 80.2716 34.902 80.9921 35.2657C81.7208 35.6212 82.2838 36.1255 82.6813 36.7785C83.0871 37.4316 83.29 38.1921 83.29 39.0601C83.29 39.9281 83.0871 40.6887 82.6813 41.3417C82.2838 41.9948 81.7208 42.5032 80.9921 42.8669C80.2716 43.2224 79.4394 43.4001 78.4954 43.4001H74.5455V34.7201ZM78.3961 41.7509C79.2655 41.7509 79.957 41.5112 80.4704 41.0317C80.9921 40.544 81.2529 39.8868 81.2529 39.0601C81.2529 38.2335 80.9921 37.5804 80.4704 37.1009C79.957 36.6132 79.2655 36.3693 78.3961 36.3693H76.5577V41.7509H78.3961ZM84.6708 36.7289H86.6084V43.4001H84.6708V36.7289ZM85.6396 35.7989C85.2835 35.7989 84.9937 35.6956 84.7701 35.4889C84.5465 35.2823 84.4348 35.026 84.4348 34.7201C84.4348 34.4143 84.5465 34.158 84.7701 33.9513C84.9937 33.7447 85.2835 33.6413 85.6396 33.6413C85.9957 33.6413 86.2855 33.7405 86.5091 33.9389C86.7327 34.1373 86.8444 34.3853 86.8444 34.6829C86.8444 35.0053 86.7327 35.274 86.5091 35.4889C86.2855 35.6956 85.9957 35.7989 85.6396 35.7989ZM95.3005 36.7289V42.2841C95.3005 43.5076 94.9817 44.4169 94.3441 45.0121C93.7065 45.6073 92.7749 45.9049 91.5493 45.9049C90.9034 45.9049 90.2907 45.8264 89.711 45.6693C89.1314 45.5123 88.6511 45.2849 88.2702 44.9873L89.0403 43.5985C89.3218 43.83 89.6779 44.0119 90.1085 44.1441C90.5391 44.2847 90.9697 44.3549 91.4003 44.3549C92.071 44.3549 92.5637 44.202 92.8784 43.8961C93.2013 43.5985 93.3628 43.1439 93.3628 42.5321V42.2469C92.8577 42.8008 92.1538 43.0777 91.2512 43.0777C90.6385 43.0777 90.0754 42.9455 89.562 42.6809C89.0568 42.4081 88.6552 42.0279 88.3571 41.5401C88.059 41.0524 87.91 40.4903 87.91 39.8537C87.91 39.2172 88.059 38.6551 88.3571 38.1673C88.6552 37.6796 89.0568 37.3035 89.562 37.0389C90.0754 36.7661 90.6385 36.6297 91.2512 36.6297C92.2201 36.6297 92.9571 36.948 93.4622 37.5845V36.7289H95.3005ZM91.6363 41.4905C92.1497 41.4905 92.5679 41.3417 92.8908 41.0441C93.222 40.7383 93.3876 40.3415 93.3876 39.8537C93.3876 39.366 93.222 38.9733 92.8908 38.6757C92.5679 38.3699 92.1497 38.2169 91.6363 38.2169C91.1229 38.2169 90.7006 38.3699 90.3693 38.6757C90.0381 38.9733 89.8725 39.366 89.8725 39.8537C89.8725 40.3415 90.0381 40.7383 90.3693 41.0441C90.7006 41.3417 91.1229 41.4905 91.6363 41.4905ZM97.1039 36.7289H99.0416V43.4001H97.1039V36.7289ZM98.0728 35.7989C97.7167 35.7989 97.4269 35.6956 97.2033 35.4889C96.9797 35.2823 96.8679 35.026 96.8679 34.7201C96.8679 34.4143 96.9797 34.158 97.2033 33.9513C97.4269 33.7447 97.7167 33.6413 98.0728 33.6413C98.4288 33.6413 98.7187 33.7405 98.9422 33.9389C99.1658 34.1373 99.2776 34.3853 99.2776 34.6829C99.2776 35.0053 99.1658 35.274 98.9422 35.4889C98.7187 35.6956 98.4288 35.7989 98.0728 35.7989ZM104.865 43.0777C104.674 43.2183 104.438 43.3257 104.157 43.4001C103.884 43.4663 103.598 43.4993 103.299 43.4993C102.496 43.4993 101.879 43.2968 101.449 42.8917C101.018 42.4867 100.803 41.8915 100.803 41.1061V35.2533H102.74V36.8777H104.393V38.3657H102.74V41.0813C102.74 41.3624 102.811 41.5815 102.952 41.7385C103.092 41.8873 103.295 41.9617 103.561 41.9617C103.859 41.9617 104.124 41.8791 104.356 41.7137L104.865 43.0777ZM112.535 36.7289V43.4001H110.684V42.6313C110.204 43.21 109.508 43.4993 108.597 43.4993C107.968 43.4993 107.397 43.3588 106.883 43.0777C106.378 42.7967 105.981 42.3957 105.691 41.8749C105.401 41.3541 105.256 40.7507 105.256 40.0645C105.256 39.3784 105.401 38.7749 105.691 38.2541C105.981 37.7333 106.378 37.3324 106.883 37.0513C107.397 36.7703 107.968 36.6297 108.597 36.6297C109.45 36.6297 110.117 36.8984 110.597 37.4357V36.7289H112.535ZM108.933 41.9121C109.421 41.9121 109.827 41.7468 110.15 41.4161C110.473 41.0772 110.634 40.6267 110.634 40.0645C110.634 39.5024 110.473 39.056 110.15 38.7253C109.827 38.3864 109.421 38.2169 108.933 38.2169C108.436 38.2169 108.026 38.3864 107.703 38.7253C107.38 39.056 107.219 39.5024 107.219 40.0645C107.219 40.6267 107.38 41.0772 107.703 41.4161C108.026 41.7468 108.436 41.9121 108.933 41.9121ZM116.726 43.4993C115.972 43.4993 115.384 43.3009 114.962 42.9041C114.54 42.4991 114.329 41.9287 114.329 41.1929V34.1993H116.266V41.0813C116.266 41.3624 116.337 41.5815 116.477 41.7385C116.627 41.8873 116.834 41.9617 117.099 41.9617C117.198 41.9617 117.297 41.9493 117.397 41.9245C117.504 41.8997 117.587 41.8708 117.645 41.8377L117.732 43.3381C117.409 43.4456 117.074 43.4993 116.726 43.4993Z" fill="#F2F2F2"/>
<path d="M18.293 17.1348C18.3353 17.1864 18.3729 17.2287 18.4152 17.2804C18.6693 17.5857 18.9422 17.9192 19.2386 18.2762C19.3845 18.4547 19.5397 18.6379 19.695 18.8257C20.4807 19.7698 21.37 20.8407 22.3062 21.9586C22.6779 22.4048 23.059 22.8604 23.4401 23.316C23.8213 23.7717 24.207 24.2319 24.5882 24.6875C24.6117 24.7157 24.6352 24.7439 24.6588 24.772C24.8328 24.9787 25.0022 25.1854 25.1762 25.3874C25.2045 25.4202 25.2327 25.4579 25.2656 25.4907C25.4021 25.6504 25.5338 25.8101 25.6656 25.9698C25.7503 26.0731 25.8349 26.1718 25.9196 26.2751C25.9432 26.3033 25.9667 26.3314 25.9902 26.3597C26.0419 26.4254 26.0985 26.4864 26.1502 26.5523C26.216 26.632 26.2819 26.7119 26.3478 26.7918C26.376 26.8294 26.409 26.8623 26.4371 26.8998C26.5172 26.9937 26.5972 27.0924 26.6772 27.1863C26.7336 27.252 26.7853 27.3179 26.8418 27.3836C26.9077 27.4635 26.9735 27.5433 27.0395 27.6231C27.0959 27.6936 27.157 27.7594 27.2135 27.8298C27.2417 27.8627 27.27 27.9003 27.3029 27.9331C27.3923 28.0412 27.4816 28.1492 27.5711 28.2525C27.5993 28.2854 27.6275 28.3183 27.6558 28.3512C27.7075 28.4169 27.7639 28.478 27.8157 28.5391C27.8722 28.6048 27.9239 28.6706 27.9804 28.7363C28.0086 28.7692 28.0321 28.7974 28.0604 28.8302C28.3897 29.2201 28.6956 29.5912 28.9873 29.9341C29.0014 29.9481 29.0154 29.9669 29.0296 29.9811C29.119 30.0844 29.199 30.183 29.2836 30.2817C29.3307 30.338 29.3777 30.3944 29.4201 30.4461C29.4389 30.4695 29.4625 30.4977 29.4812 30.5212C29.6224 30.6856 29.7494 30.8406 29.8765 30.9908C30.0318 31.1741 30.1776 31.3479 30.3046 31.4981C30.3423 31.5451 30.3752 31.5827 30.4082 31.625L30.4128 31.6297C30.5493 31.7941 30.6716 31.9397 30.7704 32.057C30.7704 32.057 30.7704 32.057 30.7751 32.0618C30.8222 32.1181 30.8693 32.1698 30.9069 32.2168C30.9163 32.2262 30.9257 32.2308 30.9351 32.2402C30.9869 32.2779 31.0715 32.2825 31.1233 32.2402C31.1327 32.2308 31.1421 32.2262 31.1516 32.2168C31.1845 32.1792 31.2221 32.1323 31.2645 32.0853C31.2926 32.0476 31.3257 32.0101 31.3586 31.9725C31.4338 31.8833 31.5185 31.7847 31.6079 31.6767C31.6408 31.6391 31.6691 31.6062 31.6974 31.5686C31.7067 31.5592 31.7114 31.5498 31.7209 31.5404C31.7678 31.4841 31.8196 31.423 31.8714 31.3619C31.8714 31.3573 31.8761 31.3573 31.8761 31.3573C31.9185 31.3056 31.9654 31.2492 32.0125 31.1929C32.0455 31.1506 32.0831 31.1083 32.1207 31.0613C32.2525 30.9017 32.3937 30.7373 32.5442 30.5541C32.563 30.5306 32.5818 30.507 32.6053 30.4836C32.6665 30.4085 32.7371 30.3286 32.8029 30.2487C32.8641 30.1783 32.9253 30.1031 32.9865 30.028C33.1982 29.7744 33.424 29.5067 33.6593 29.2248C33.7064 29.1731 33.7487 29.1168 33.7957 29.0651C33.8099 29.0463 33.8286 29.0275 33.8428 29.0087C33.9086 28.9289 33.9792 28.8491 34.045 28.7645C34.1156 28.68 34.1862 28.5954 34.2615 28.5062C34.3038 28.4545 34.3461 28.4075 34.3885 28.3558C34.4073 28.3324 34.4262 28.3136 34.445 28.2901C34.5437 28.168 34.6473 28.0458 34.7508 27.9237C34.779 27.8908 34.8025 27.8627 34.8308 27.8298C34.8637 27.7923 34.8967 27.7547 34.9249 27.717C35.179 27.4164 35.4377 27.1064 35.7012 26.787C35.7624 26.7119 35.8283 26.6368 35.8894 26.5617C35.8988 26.5523 35.9082 26.5381 35.9176 26.5287C35.9976 26.4301 36.0823 26.3314 36.167 26.2329C36.2376 26.153 36.3034 26.0685 36.374 25.9886C36.5058 25.8336 36.6375 25.6739 36.7693 25.5142C36.8069 25.4673 36.8445 25.4202 36.8869 25.3733C37.0562 25.1713 37.2257 24.9693 37.395 24.7674C37.4185 24.7439 37.4373 24.7157 37.4608 24.6923C37.8419 24.2367 38.2231 23.7763 38.6088 23.3207C38.99 22.8651 39.3711 22.4095 39.7428 21.9633C40.6744 20.8454 41.5683 19.7745 42.354 18.8304C42.5093 18.6425 42.6645 18.4593 42.8104 18.2808C43.1068 17.9239 43.3797 17.5904 43.6338 17.2851C43.6761 17.2335 43.709 17.1912 43.7514 17.1442C40.392 14.0912 35.927 12.2264 31.0292 12.2264C26.1172 12.2264 21.6522 14.0864 18.293 17.1348Z" fill="white"/>
<path d="M36.4487 40.0986C36.1805 39.8543 35.7572 39.9248 35.5736 40.2394L32.7037 45.2182L31.9932 46.4442C31.8614 46.6696 31.6215 46.8105 31.358 46.8105H31.0193H30.6899H30.6805C30.417 46.8105 30.1723 46.6696 30.0406 46.4394L30.0359 46.4348L26.4601 40.23C26.2814 39.9154 25.8532 39.8496 25.585 40.0892L22.9173 42.4659L19.2098 45.7725C22.4421 48.3605 26.5449 49.9105 31.0145 49.9105C35.4842 49.9105 39.587 48.3605 42.8239 45.7678L41.3984 44.4949L36.4487 40.0986Z" fill="white"/>
<path d="M16.2652 29.3186C15.3995 27.8672 14.3832 26.1623 13.5269 24.7203C13.4657 24.6169 13.4046 24.5136 13.3434 24.4149C12.5576 26.4863 12.1249 28.7315 12.1249 31.0753C12.1249 33.6398 12.6377 36.0775 13.5692 38.304L14.2891 37.4256L18.1565 32.7051C18.1613 32.7004 18.1942 32.6629 18.2366 32.6065C18.2319 32.6018 18.2271 32.5971 18.2225 32.5877C18.1048 32.4045 17.2861 31.033 16.2652 29.3186Z" fill="white"/>
<path d="M31.0526 0C13.9031 0 0 13.8701 0 30.9812C0 48.0923 13.9031 61.9624 31.0526 61.9624C48.2022 61.9624 62.1053 48.0923 62.1053 30.9812C62.1053 13.8701 48.2022 0 31.0526 0ZM55.3301 47.3173H55.316H44.6029C44.5888 47.3173 44.57 47.3126 44.5559 47.3079C44.5511 47.3126 44.5511 47.3126 44.5465 47.3173L44.5417 47.3126C40.8719 50.3562 36.1575 52.188 31.015 52.188C25.8725 52.188 21.1581 50.3562 17.493 47.3126H17.4883C17.4836 47.3079 17.4836 47.3079 17.4789 47.3032C17.4647 47.3079 17.4506 47.3126 17.4318 47.3126H6.71866H6.70454C6.49283 47.3126 6.37991 47.0683 6.51164 46.9087L11.9553 40.2624C10.605 37.4818 9.84745 34.363 9.84745 31.0657C9.84745 19.4032 19.3232 9.94818 31.015 9.94818C42.7068 9.94818 52.1825 19.4032 52.1825 31.0657C52.1825 34.3583 51.425 37.4771 50.0794 40.2577L52.1449 42.7754L55.523 46.8993L55.5325 46.9087C55.6548 47.073 55.5419 47.3173 55.3301 47.3173Z" fill="white"/>
<path d="M48.5121 24.7159C47.6512 26.1579 46.6396 27.8629 45.7739 29.3142C44.7483 31.0333 43.9343 32.4001 43.8213 32.588C43.8167 32.5927 43.8119 32.5974 43.8073 32.6021L43.8777 32.6913C43.8825 32.696 43.8825 32.7007 43.8872 32.7054L48.4651 38.2948C49.392 36.0685 49.9049 33.6307 49.9049 31.0709C49.9049 28.7271 49.472 26.4866 48.6909 24.4199C48.6298 24.5186 48.5733 24.6172 48.5121 24.7159Z" fill="white"/>
<path d="M59.8 101C59.7147 101 59.6347 100.968 59.56 100.904C59.496 100.84 59.464 100.76 59.464 100.664C59.464 100.568 59.5013 100.472 59.576 100.376L62.36 96.744L59.752 93.304C59.6773 93.2187 59.64 93.1227 59.64 93.016C59.64 92.92 59.672 92.84 59.736 92.776C59.8 92.712 59.88 92.68 59.976 92.68H60.792C60.952 92.68 61.0907 92.7653 61.208 92.936L63.336 95.704L65.464 92.952C65.528 92.8667 65.5867 92.8027 65.64 92.76C65.704 92.7067 65.784 92.68 65.88 92.68H66.664C66.76 92.68 66.84 92.712 66.904 92.776C66.968 92.84 67 92.92 67 93.016C67 93.1227 66.9627 93.2187 66.888 93.304L64.248 96.776L67.032 100.376C67.1067 100.472 67.144 100.568 67.144 100.664C67.144 100.76 67.112 100.84 67.048 100.904C66.984 100.968 66.904 101 66.808 101H65.96C65.8 101 65.6613 100.92 65.544 100.76L63.304 97.832L61.032 100.76C60.968 100.835 60.904 100.893 60.84 100.936C60.7867 100.979 60.712 101 60.616 101H59.8Z" fill="#FCFCFC"/>
<g clip-path="url(#clip0)">
<path d="M66.0841 144.566L72.1738 144.177C72.3127 145.162 72.5674 145.894 72.9842 146.421C73.6557 147.245 74.5819 147.657 75.8091 147.657C76.7121 147.657 77.4299 147.451 77.9162 147.016C78.3793 146.673 78.6572 146.123 78.6572 145.551C78.6572 145.001 78.4025 144.475 77.9625 144.131C77.4994 143.719 76.4111 143.307 74.6977 142.941C71.8959 142.323 69.8815 141.499 68.7006 140.446C67.5197 139.461 66.8482 138.019 66.8945 136.485C66.8945 135.432 67.2187 134.379 67.8207 133.509C68.5153 132.525 69.4647 131.746 70.5993 131.311C71.8265 130.785 73.5399 130.51 75.6933 130.51C78.333 130.51 80.3475 130.991 81.7367 131.975C83.126 132.937 83.9596 134.493 84.2143 136.622L78.1941 136.966C78.032 136.05 77.7078 135.386 77.1752 134.951C76.6427 134.516 75.948 134.31 75.045 134.31C74.304 134.31 73.7483 134.47 73.3778 134.768C73.0305 135.043 72.799 135.455 72.8221 135.913C72.8221 136.256 73.0074 136.577 73.2852 136.783C73.5862 137.057 74.304 137.309 75.4386 137.538C78.2404 138.133 80.2317 138.729 81.4589 139.347C82.6861 139.965 83.566 140.72 84.0985 141.613C84.6543 142.529 84.9321 143.582 84.909 144.658C84.909 145.94 84.5385 147.222 83.7975 148.298C83.0334 149.42 81.9683 150.29 80.7179 150.816C79.3981 151.389 77.731 151.686 75.7396 151.686C72.2201 151.686 69.7888 151.022 68.4227 149.672C67.0566 148.321 66.2462 146.627 66.0841 144.566ZM1.45888 151.343V130.876H12.1333C14.1014 130.876 15.6296 131.036 16.6716 131.38C17.6904 131.7 18.5935 132.364 19.1955 133.257C19.867 134.242 20.1912 135.386 20.168 136.577C20.2375 138.591 19.1955 140.514 17.4126 141.522C16.7179 141.911 15.9538 142.185 15.1665 142.323C15.7454 142.483 16.3243 142.758 16.8337 143.078C17.2273 143.399 17.5515 143.765 17.8525 144.154C18.1998 144.543 18.5008 144.978 18.7556 145.436L21.8583 151.366H14.5877L11.1608 145.07C10.7208 144.269 10.3503 143.742 10.003 143.49C9.53992 143.17 8.98421 143.01 8.42849 143.01H7.87277V151.32H1.45888V151.343ZM7.87277 139.164H10.5819C11.1608 139.118 11.7165 139.026 12.2722 138.889C12.689 138.82 13.0595 138.591 13.3142 138.248C13.9393 137.424 13.8467 136.256 13.0826 135.546C12.6658 135.203 11.8554 135.02 10.6977 135.02H7.87277V139.164ZM0.00012207 168.879L6.08985 168.49C6.22878 169.474 6.48348 170.207 6.90027 170.733C7.5486 171.558 8.49795 171.993 9.72516 171.993C10.6282 171.993 11.346 171.787 11.8323 171.352C12.2953 170.985 12.5732 170.459 12.5732 169.886C12.5732 169.337 12.3185 168.81 11.8786 168.467C11.4155 168.055 10.3272 167.643 8.59057 167.277C5.78883 166.658 3.77436 165.834 2.59347 164.781C1.41257 163.797 0.741077 162.355 0.787387 160.821C0.787387 159.768 1.11155 158.714 1.71358 157.845C2.40823 156.86 3.35758 156.082 4.49216 155.647C5.71937 155.12 7.43283 154.845 9.58623 154.845C12.2259 154.845 14.2404 155.326 15.6296 156.311C17.0189 157.295 17.8294 158.829 18.0841 160.958L12.0638 161.301C11.9017 160.386 11.5775 159.722 11.045 159.287C10.5356 158.852 9.81778 158.646 8.91474 158.669C8.17379 158.669 7.61807 158.829 7.24759 159.149C6.87711 159.424 6.66872 159.836 6.69187 160.294C6.69187 160.638 6.87711 160.958 7.15497 161.164C7.45598 161.439 8.17379 161.691 9.30837 161.92C12.1101 162.515 14.1014 163.11 15.3286 163.728C16.5558 164.346 17.4357 165.102 17.9683 165.995C18.524 166.91 18.8019 167.963 18.8019 169.016C18.8019 170.298 18.4082 171.558 17.6904 172.634C16.9263 173.755 15.8612 174.625 14.6108 175.152C13.291 175.724 11.6239 176.022 9.63254 176.022C6.113 176.022 3.68174 175.358 2.31561 174.007C0.949471 172.634 0.185361 170.94 0.00012207 168.879H0.00012207Z" fill="white"/>
<path d="M30.796 167.277L36.3995 168.948C36.0985 170.345 35.4733 171.673 34.6166 172.84C33.8293 173.87 32.7873 174.672 31.6064 175.198C30.4024 175.725 28.8742 176 27.0218 176C24.7757 176 22.9234 175.679 21.5109 175.038C20.0753 174.397 18.8481 173.252 17.8061 171.627C16.7642 170.001 16.2548 167.918 16.2548 165.377C16.2548 161.989 17.1578 159.379 18.987 157.57C20.8163 155.762 23.3865 154.846 26.7208 154.846C29.3373 154.846 31.3749 155.373 32.8799 156.403C34.3619 157.456 35.4733 159.058 36.2142 161.21L30.5645 162.447C30.4255 161.966 30.2171 161.485 29.9393 161.073C29.592 160.592 29.152 160.226 28.6195 159.951C28.0869 159.677 27.4849 159.562 26.8828 159.562C25.4241 159.562 24.3126 160.134 23.5485 161.302C22.9697 162.149 22.6687 163.5 22.6687 165.331C22.6687 167.598 23.016 169.154 23.7106 170.001C24.4053 170.849 25.3778 171.261 26.6513 171.261C27.8785 171.261 28.8047 170.917 29.4299 170.253C30.0551 169.544 30.5182 168.559 30.796 167.277ZM43.8785 155.189H50.2692V162.355H57.262V155.189H63.6991V175.656H57.262V167.369H50.2692V175.656H43.8785V155.189Z" fill="white"/>
<path d="M62.8191 165.422C62.8191 162.08 63.7684 159.47 65.644 157.616C67.5195 155.762 70.1592 154.823 73.5166 154.823C76.9667 154.823 79.6064 155.739 81.4819 157.57C83.3575 159.402 84.2836 161.966 84.2836 165.262C84.2836 167.666 83.8669 169.612 83.0564 171.146C82.2692 172.657 81.042 173.893 79.5369 174.717C77.9855 175.564 76.0637 175.999 73.7713 175.999C71.4327 175.999 69.5108 175.633 67.9826 174.9C66.4081 174.122 65.1114 172.909 64.2547 171.421C63.3053 169.818 62.8191 167.826 62.8191 165.422ZM69.2098 165.445C69.2098 167.506 69.6035 168.994 70.3676 169.91C71.1317 170.802 72.1968 171.26 73.5398 171.26C74.9059 171.26 75.9711 170.825 76.7352 169.932C77.4993 169.04 77.8697 167.46 77.8697 165.171C77.8697 163.248 77.4761 161.828 76.6889 160.958C75.9016 160.065 74.8365 159.63 73.4935 159.63C72.3126 159.585 71.178 160.088 70.3907 160.981C69.6035 161.874 69.2098 163.362 69.2098 165.445ZM90.8365 165.422C90.8365 162.08 91.7858 159.47 93.6614 157.616C95.5369 155.762 98.1766 154.823 101.534 154.823C104.984 154.823 107.647 155.739 109.499 157.57C111.352 159.402 112.301 161.966 112.301 165.262C112.301 167.666 111.884 169.612 111.074 171.146C110.287 172.657 109.059 173.893 107.554 174.717C106.003 175.564 104.081 175.999 101.789 175.999C99.4501 175.999 97.5282 175.633 96 174.9C94.4255 174.122 93.1288 172.909 92.2721 171.421C91.3227 169.818 90.8365 167.826 90.8365 165.422ZM97.2272 165.445C97.2272 167.506 97.6208 168.994 98.385 169.91C99.1491 170.802 100.214 171.26 101.557 171.26C102.923 171.26 103.988 170.825 104.753 169.932C105.517 169.04 105.887 167.46 105.887 165.171C105.887 163.248 105.493 161.828 104.706 160.958C103.919 160.065 102.854 159.63 101.511 159.63C100.33 159.585 99.1722 160.088 98.4081 160.981C97.6208 161.874 97.2272 163.362 97.2272 165.445Z" fill="white"/>
<path d="M111.63 155.189H118.02V170.62H128V175.656H111.607V155.189H111.63Z" fill="white"/>
<path d="M104.555 154.012C110.983 149.211 112.968 141.075 108.987 135.84C105.006 130.605 96.5678 130.253 90.1391 135.054C83.7104 139.855 81.7259 147.991 85.7067 153.226C89.6875 158.461 98.126 158.812 104.555 154.012Z" stroke="white" stroke-width="1.17433" stroke-miterlimit="10"/>
<path d="M104.555 154.012C110.983 149.211 112.968 141.075 108.987 135.84C105.006 130.605 96.5678 130.253 90.1391 135.054C83.7104 139.855 81.7259 147.991 85.7067 153.226C89.6875 158.461 98.126 158.812 104.555 154.012Z" stroke="white" stroke-width="1.17433" stroke-miterlimit="10"/>
<path d="M90.8601 143.033L93.1756 141.43L96.0236 145.436C96.5099 146.078 96.8804 146.764 97.1582 147.52C97.3203 148.092 97.274 148.71 97.0424 149.26C96.7414 149.946 96.2552 150.519 95.6068 150.931C94.8427 151.457 94.1944 151.755 93.6387 151.847C93.1061 151.938 92.5504 151.847 92.041 151.618C91.4853 151.343 90.999 150.954 90.6285 150.45L92.6199 148.619C92.7819 148.87 92.9903 149.099 93.2219 149.283C93.384 149.397 93.5692 149.466 93.7776 149.466C93.9397 149.466 94.1018 149.397 94.2175 149.305C94.4491 149.168 94.6112 148.893 94.588 148.619C94.5186 148.229 94.3565 147.84 94.1018 147.543L90.8601 143.033ZM97.8066 145.574L99.9136 143.926C100.145 144.2 100.446 144.406 100.77 144.521C101.233 144.658 101.72 144.567 102.113 144.269C102.391 144.086 102.623 143.834 102.715 143.513C102.854 143.101 102.623 142.644 102.206 142.506C102.137 142.483 102.067 142.46 101.998 142.46C101.72 142.437 101.233 142.552 100.516 142.85C99.3348 143.33 98.4086 143.513 97.7139 143.445C97.0424 143.376 96.4173 143.033 96.0468 142.46C95.7689 142.071 95.63 141.613 95.6068 141.155C95.6068 140.629 95.7458 140.102 96.0468 139.667C96.4867 139.049 97.0193 138.523 97.6676 138.111C98.6401 137.447 99.4969 137.126 100.238 137.126C100.979 137.126 101.673 137.47 102.322 138.179L100.238 139.805C99.821 139.278 99.0338 139.164 98.5012 139.576L98.4317 139.644C98.2002 139.782 98.0381 139.988 97.9455 140.24C97.876 140.423 97.9223 140.629 98.0381 140.789C98.1307 140.904 98.2697 140.995 98.4317 140.995C98.617 141.018 98.9411 140.927 99.4042 140.72C100.562 140.24 101.442 139.965 102.044 139.873C102.553 139.782 103.086 139.828 103.572 140.034C104.012 140.217 104.383 140.537 104.637 140.927C104.961 141.384 105.147 141.934 105.17 142.506C105.193 143.101 105.031 143.674 104.707 144.177C104.29 144.795 103.757 145.322 103.132 145.734C101.859 146.604 100.817 146.97 99.9831 146.833C99.0801 146.696 98.3391 146.238 97.8066 145.574Z" fill="white"/>
</g>
<defs>
<clipPath id="clip0">
<rect width="128" height="47" fill="white" transform="translate(0 129)"/>
</clipPath>
</defs>
</svg>
